<svg width="179" height="71" viewBox="0 0 179 71" fill="none" xmlns="http://www.w3.org/2000/svg">
<rect width="179" height="71" fill="#FFFF00"/>
<path d="M79.248 23.952L76.44 23.484V21.252H81.804C82.62 21.252 83.676 21.204 84.972 21.108C85.284 21.084 85.656 21.06 86.088 21.036C86.52 21.012 87.024 21 87.6 21C91.224 21 93.756 21.516 95.196 22.548C96.66 23.556 97.392 25.068 97.392 27.084C97.392 28.86 96.852 30.348 95.772 31.548C94.716 32.724 93.324 33.444 91.596 33.708C93.972 33.684 95.832 34.224 97.176 35.328C98.544 36.432 99.228 37.968 99.228 39.936C99.228 42.432 98.352 44.436 96.6 45.948C94.848 47.46 91.92 48.216 87.816 48.216C86.736 48.216 85.74 48.18 84.828 48.108C84.588 48.108 84.18 48.084 83.604 48.036C83.028 48.012 82.44 48 81.84 48H76.404V45.84L79.248 45.48V23.952ZM84.468 32.916C84.732 32.94 85.272 32.952 86.088 32.952H87.78C89.244 32.952 90.336 32.496 91.056 31.584C91.776 30.672 92.136 29.388 92.136 27.732C92.136 26.148 91.764 24.996 91.02 24.276C90.276 23.556 89.04 23.196 87.312 23.196C86.856 23.196 85.908 23.244 84.468 23.34V32.916ZM84.468 45.624C85.02 45.84 86.076 45.948 87.636 45.948C89.676 45.948 91.152 45.468 92.064 44.508C92.976 43.548 93.432 42.156 93.432 40.332C93.432 38.58 93.012 37.332 92.172 36.588C91.356 35.82 90.048 35.436 88.248 35.436C86.232 35.436 84.972 35.46 84.468 35.508V45.624ZM104.091 21.684L101.427 21.216V19.272L108.087 18.48H108.159L109.131 19.164V45.552L111.759 45.84V48H101.571V45.84L104.091 45.516V21.684ZM114.237 38.028C114.237 35.772 114.681 33.852 115.569 32.268C116.481 30.684 117.693 29.496 119.205 28.704C120.717 27.888 122.361 27.48 124.137 27.48C127.161 27.48 129.489 28.416 131.121 30.288C132.777 32.136 133.605 34.656 133.605 37.848C133.605 40.128 133.149 42.072 132.237 43.68C131.349 45.264 130.149 46.452 128.637 47.244C127.149 48.012 125.505 48.396 123.705 48.396C120.705 48.396 118.377 47.472 116.721 45.624C115.065 43.752 114.237 41.22 114.237 38.028ZM123.993 46.056C126.705 46.056 128.061 43.44 128.061 38.208C128.061 35.472 127.737 33.396 127.089 31.98C126.441 30.54 125.385 29.82 123.921 29.82C121.137 29.82 119.745 32.436 119.745 37.668C119.745 40.404 120.081 42.492 120.753 43.932C121.449 45.348 122.529 46.056 123.993 46.056ZM145.59 57.72C142.374 57.72 140.046 57.216 138.606 56.208C137.166 55.2 136.446 53.832 136.446 52.104C136.446 51.12 136.77 50.184 137.418 49.296C138.09 48.432 138.894 47.784 139.83 47.352C138.726 46.704 138.174 45.672 138.174 44.256C138.174 43.44 138.438 42.672 138.966 41.952C139.494 41.208 140.178 40.632 141.018 40.224C139.698 39.72 138.714 38.952 138.066 37.92C137.418 36.888 137.094 35.664 137.094 34.248C137.094 32.88 137.49 31.692 138.282 30.684C139.098 29.652 140.178 28.86 141.522 28.308C142.89 27.756 144.366 27.48 145.95 27.48C148.758 27.48 150.846 28.02 152.214 29.1C152.526 28.692 153.054 28.308 153.798 27.948C154.542 27.588 155.31 27.408 156.102 27.408H157.362V31.332H153.654C154.014 32.1 154.194 32.916 154.194 33.78C154.218 35.964 153.45 37.716 151.89 39.036C150.33 40.332 148.194 40.98 145.482 40.98C144.354 40.98 143.406 40.896 142.638 40.728C142.398 41.04 142.206 41.376 142.062 41.736C141.942 42.072 141.882 42.372 141.882 42.636C141.882 43.428 142.158 43.968 142.71 44.256C143.286 44.544 144.306 44.688 145.77 44.688H149.622C154.518 44.688 156.966 46.464 156.966 50.016C156.966 51.504 156.438 52.836 155.382 54.012C154.326 55.188 152.922 56.1 151.17 56.748C149.418 57.396 147.558 57.72 145.59 57.72ZM145.842 38.748C148.074 38.748 149.19 37.224 149.19 34.176C149.19 32.616 148.902 31.476 148.326 30.756C147.774 30.012 146.922 29.64 145.77 29.64C144.642 29.64 143.766 30.012 143.142 30.756C142.542 31.476 142.242 32.568 142.242 34.032C142.242 37.176 143.442 38.748 145.842 38.748ZM146.13 55.236C147.642 55.236 148.95 54.864 150.054 54.12C151.158 53.4 151.71 52.392 151.71 51.096C151.71 50.064 151.434 49.32 150.882 48.864C150.354 48.408 149.394 48.18 148.002 48.18H144.078C143.478 48.18 142.926 48.144 142.422 48.072C141.774 48.936 141.45 49.968 141.45 51.168C141.45 52.488 141.81 53.496 142.53 54.192C143.25 54.888 144.45 55.236 146.13 55.236Z" fill="black"/>
<path d="M38.3928 18H26.1309C22.4639 18 20 20.4639 20 24.1309V49.6221C20 50.8325 20.4514 54.7856 26.2632 54.7856H56.7856V18H38.3928ZM36.8604 19.5324V34.1949L33.1071 30.7765L28.9398 34.284V19.5338H36.8619L36.8604 19.5324ZM26.1309 19.5324H27.406V37.5759L33.0669 32.8134L38.3942 37.6636V19.5324H55.2547V44.8223H26.1324C24.1817 44.8223 22.6004 45.4045 21.5338 46.4222V24.1295C21.5338 21.3364 23.3393 19.5309 26.1324 19.5309L26.1309 19.5324ZM26.2632 53.2532C22.7499 53.2532 21.7336 51.6591 21.564 50.1339C21.5669 47.7677 23.2732 46.3561 26.1309 46.3561H55.2532V53.2532H26.2632Z" fill="black"/>
</svg>
