<svg width="744" height="99" viewBox="0 0 744 99" fill="none" xmlns="http://www.w3.org/2000/svg">
<rect width="744" height="99" fill="#FFFF00"/>
<path d="M109.692 49.396C108.396 49.396 107.232 49.288 106.2 49.072C105.168 48.856 104.016 48.568 102.744 48.208C101.904 47.968 101.34 47.836 101.052 47.812L101.376 41.152H104.292L105.084 45.796C105.396 46.132 105.948 46.432 106.74 46.696C107.556 46.96 108.48 47.092 109.512 47.092C111.12 47.092 112.32 46.744 113.112 46.048C113.928 45.328 114.336 44.332 114.336 43.06C114.336 42.22 114.096 41.5 113.616 40.9C113.136 40.276 112.476 39.724 111.636 39.244C110.796 38.74 109.644 38.164 108.18 37.516C106.188 36.604 104.532 35.524 103.212 34.276C101.916 33.004 101.268 31.288 101.268 29.128C101.268 27.784 101.616 26.572 102.312 25.492C103.008 24.388 104.04 23.524 105.408 22.9C106.8 22.252 108.492 21.928 110.484 21.928C111.66 21.928 112.692 22.012 113.58 22.18C114.492 22.348 115.476 22.576 116.532 22.864C117.156 23.032 117.624 23.14 117.936 23.188L117.72 29.488H114.84L114.084 25.06C113.868 24.844 113.436 24.64 112.788 24.448C112.14 24.232 111.42 24.124 110.628 24.124C109.188 24.124 108.096 24.46 107.352 25.132C106.632 25.78 106.272 26.656 106.272 27.76C106.272 28.648 106.536 29.416 107.064 30.064C107.616 30.712 108.276 31.264 109.044 31.72C109.812 32.152 111.024 32.776 112.68 33.592C114.024 34.24 115.176 34.876 116.136 35.5C117.096 36.124 117.924 36.94 118.62 37.948C119.316 38.932 119.664 40.096 119.664 41.44C119.664 42.76 119.328 44.02 118.656 45.22C118.008 46.42 116.928 47.416 115.416 48.208C113.928 49 112.02 49.396 109.692 49.396ZM121.843 39.1C121.843 37.036 122.251 35.2 123.067 33.592C123.907 31.984 125.095 30.736 126.631 29.848C128.191 28.936 130.003 28.48 132.067 28.48C133.027 28.48 133.855 28.552 134.551 28.696C135.247 28.84 136.027 29.032 136.891 29.272L137.935 29.56L137.719 35.716H134.587L133.687 31.756C133.543 31.132 132.835 30.82 131.563 30.82C130.219 30.82 129.163 31.408 128.395 32.584C127.651 33.76 127.267 35.596 127.243 38.092C127.243 40.732 127.699 42.76 128.611 44.176C129.523 45.568 130.735 46.264 132.247 46.264C134.071 46.264 135.751 45.772 137.287 44.788L138.115 46.66C137.491 47.332 136.531 47.956 135.235 48.532C133.963 49.108 132.583 49.396 131.095 49.396C128.023 49.396 125.707 48.448 124.147 46.552C122.611 44.656 121.843 42.172 121.843 39.1ZM140.979 39.028C140.979 36.772 141.423 34.852 142.311 33.268C143.223 31.684 144.435 30.496 145.947 29.704C147.459 28.888 149.103 28.48 150.879 28.48C153.903 28.48 156.231 29.416 157.863 31.288C159.519 33.136 160.347 35.656 160.347 38.848C160.347 41.128 159.891 43.072 158.979 44.68C158.091 46.264 156.891 47.452 155.379 48.244C153.891 49.012 152.247 49.396 150.447 49.396C147.447 49.396 145.119 48.472 143.463 46.624C141.807 44.752 140.979 42.22 140.979 39.028ZM150.735 47.056C153.447 47.056 154.803 44.44 154.803 39.208C154.803 36.472 154.479 34.396 153.831 32.98C153.183 31.54 152.127 30.82 150.663 30.82C147.879 30.82 146.487 33.436 146.487 38.668C146.487 41.404 146.823 43.492 147.495 44.932C148.191 46.348 149.271 47.056 150.735 47.056ZM183.528 38.344C183.528 40.36 183.108 42.208 182.268 43.888C181.452 45.568 180.24 46.912 178.632 47.92C177.048 48.904 175.152 49.396 172.944 49.396C172.464 49.396 171.96 49.348 171.432 49.252C170.928 49.18 170.52 49.084 170.208 48.964L170.316 51.952V55.228L173.664 55.66V57.712H162.972V55.66L165.312 55.228V32.404L162.972 31.756V29.272L168.912 28.516H168.984L169.884 29.236V31.252C170.484 30.508 171.3 29.86 172.332 29.308C173.364 28.756 174.492 28.48 175.716 28.48C177.996 28.48 179.868 29.296 181.332 30.928C182.796 32.536 183.528 35.008 183.528 38.344ZM173.844 31.468C173.124 31.468 172.44 31.624 171.792 31.936C171.144 32.248 170.652 32.596 170.316 32.98V46.336C170.484 46.576 170.82 46.78 171.324 46.948C171.852 47.116 172.428 47.2 173.052 47.2C174.612 47.2 175.848 46.528 176.76 45.184C177.696 43.816 178.164 41.68 178.164 38.776C178.164 36.328 177.768 34.504 176.976 33.304C176.184 32.08 175.14 31.468 173.844 31.468ZM186.472 46.876L188.848 46.588V32.404L186.544 31.756V29.272L192.124 28.516H192.232L193.132 29.236V30.028L193.024 32.944H193.132C193.3 32.464 193.696 31.876 194.32 31.18C194.944 30.46 195.724 29.836 196.66 29.308C197.62 28.756 198.652 28.48 199.756 28.48C200.284 28.48 200.74 28.552 201.124 28.696V34.096C200.404 33.592 199.528 33.34 198.496 33.34C196.744 33.34 195.22 33.808 193.924 34.744V46.552L198.1 46.876V49H186.472V46.876ZM207.701 25.708C206.837 25.708 206.153 25.456 205.649 24.952C205.145 24.448 204.893 23.8 204.893 23.008C204.893 22.096 205.181 21.34 205.757 20.74C206.333 20.14 207.101 19.84 208.061 19.84C209.021 19.84 209.753 20.104 210.257 20.632C210.761 21.136 211.013 21.772 211.013 22.54C211.013 23.5 210.725 24.268 210.149 24.844C209.573 25.42 208.769 25.708 207.737 25.708H207.701ZM205.793 32.404L203.237 31.72V29.308L209.825 28.516H209.897L210.905 29.236V46.552L213.317 46.84V49H203.273V46.84L205.793 46.516V32.404ZM223.972 39.1C223.972 37.036 224.38 35.2 225.196 33.592C226.036 31.984 227.224 30.736 228.76 29.848C230.32 28.936 232.132 28.48 234.196 28.48C235.156 28.48 235.984 28.552 236.68 28.696C237.376 28.84 238.156 29.032 239.02 29.272L240.064 29.56L239.848 35.716H236.716L235.816 31.756C235.672 31.132 234.964 30.82 233.692 30.82C232.348 30.82 231.292 31.408 230.524 32.584C229.78 33.76 229.396 35.596 229.372 38.092C229.372 40.732 229.828 42.76 230.74 44.176C231.652 45.568 232.864 46.264 234.376 46.264C236.2 46.264 237.88 45.772 239.416 44.788L240.244 46.66C239.62 47.332 238.66 47.956 237.364 48.532C236.092 49.108 234.712 49.396 233.224 49.396C230.152 49.396 227.836 48.448 226.276 46.552C224.74 44.656 223.972 42.172 223.972 39.1ZM244.8 22.684L242.064 22.216V20.272L248.76 19.48H248.868L249.804 20.164L249.84 28.192L249.588 31.324C250.332 30.652 251.34 30.028 252.612 29.452C253.908 28.876 255.264 28.588 256.68 28.588C258.192 28.588 259.368 28.876 260.208 29.452C261.048 30.004 261.636 30.856 261.972 32.008C262.308 33.16 262.476 34.696 262.476 36.616V46.516L264.78 46.84V49H255.312V46.84L257.4 46.516V36.616C257.4 35.368 257.316 34.396 257.148 33.7C256.98 33.004 256.668 32.488 256.212 32.152C255.78 31.816 255.132 31.648 254.268 31.648C253.524 31.648 252.756 31.828 251.964 32.188C251.196 32.524 250.512 32.932 249.912 33.412V46.516L252.108 46.84V49H242.784V46.84L244.8 46.552V22.684ZM271.509 25.708C270.645 25.708 269.961 25.456 269.457 24.952C268.953 24.448 268.701 23.8 268.701 23.008C268.701 22.096 268.989 21.34 269.565 20.74C270.141 20.14 270.909 19.84 271.869 19.84C272.829 19.84 273.561 20.104 274.065 20.632C274.569 21.136 274.821 21.772 274.821 22.54C274.821 23.5 274.533 24.268 273.957 24.844C273.381 25.42 272.577 25.708 271.545 25.708H271.509ZM269.601 32.404L267.045 31.72V29.308L273.633 28.516H273.705L274.713 29.236V46.552L277.125 46.84V49H267.081V46.84L269.601 46.516V32.404ZM292.245 46.048C292.437 46.336 292.869 46.612 293.541 46.876C294.237 47.116 294.933 47.236 295.629 47.236C296.757 47.236 297.597 47.008 298.149 46.552C298.725 46.072 299.013 45.448 299.013 44.68C299.013 43.888 298.665 43.252 297.969 42.772C297.273 42.268 296.097 41.656 294.441 40.936L293.433 40.504C291.777 39.808 290.541 38.968 289.725 37.984C288.909 37 288.501 35.728 288.501 34.168C288.501 33.088 288.825 32.128 289.473 31.288C290.121 30.424 291.033 29.752 292.209 29.272C293.385 28.792 294.741 28.552 296.277 28.552C297.405 28.552 298.365 28.624 299.157 28.768C299.973 28.912 300.825 29.104 301.713 29.344C302.193 29.512 302.553 29.608 302.793 29.632V34.348H299.949L299.121 31.612C298.977 31.372 298.653 31.156 298.149 30.964C297.645 30.772 297.069 30.676 296.421 30.676C295.437 30.676 294.645 30.892 294.045 31.324C293.469 31.732 293.181 32.308 293.181 33.052C293.181 33.724 293.385 34.288 293.793 34.744C294.201 35.176 294.645 35.512 295.125 35.752C295.605 35.992 296.493 36.388 297.789 36.94C299.085 37.492 300.153 38.02 300.993 38.524C301.857 39.028 302.565 39.688 303.117 40.504C303.693 41.296 303.981 42.268 303.981 43.42C303.981 45.196 303.285 46.636 301.893 47.74C300.501 48.844 298.497 49.396 295.881 49.396C294.657 49.396 293.553 49.288 292.569 49.072C291.609 48.856 290.493 48.568 289.221 48.208L288.429 47.956V43.204H291.417L292.245 46.048ZM311.201 25.708C310.337 25.708 309.653 25.456 309.149 24.952C308.645 24.448 308.393 23.8 308.393 23.008C308.393 22.096 308.681 21.34 309.257 20.74C309.833 20.14 310.601 19.84 311.561 19.84C312.521 19.84 313.253 20.104 313.757 20.632C314.261 21.136 314.513 21.772 314.513 22.54C314.513 23.5 314.225 24.268 313.649 24.844C313.073 25.42 312.269 25.708 311.237 25.708H311.201ZM309.293 32.404L306.737 31.72V29.308L313.325 28.516H313.397L314.405 29.236V46.552L316.817 46.84V49H306.773V46.84L309.293 46.516V32.404ZM319.001 43.384C319.001 41.2 320.093 39.556 322.277 38.452C324.485 37.348 327.329 36.784 330.809 36.76V35.932C330.809 34.948 330.701 34.18 330.485 33.628C330.293 33.076 329.921 32.668 329.369 32.404C328.841 32.116 328.061 31.972 327.029 31.972C325.853 31.972 324.797 32.128 323.861 32.44C322.925 32.728 321.953 33.112 320.945 33.592L319.829 31.288C320.189 30.976 320.789 30.604 321.629 30.172C322.493 29.74 323.513 29.368 324.689 29.056C325.865 28.72 327.077 28.552 328.325 28.552C330.173 28.552 331.613 28.792 332.645 29.272C333.701 29.752 334.457 30.52 334.913 31.576C335.369 32.632 335.597 34.048 335.597 35.824V46.84H337.541V48.856C337.061 48.976 336.377 49.096 335.489 49.216C334.601 49.336 333.821 49.396 333.149 49.396C332.333 49.396 331.781 49.276 331.493 49.036C331.229 48.796 331.097 48.304 331.097 47.56V46.588C330.449 47.308 329.609 47.956 328.577 48.532C327.545 49.108 326.381 49.396 325.085 49.396C323.981 49.396 322.961 49.168 322.025 48.712C321.113 48.232 320.381 47.548 319.829 46.66C319.277 45.748 319.001 44.656 319.001 43.384ZM327.389 46.408C327.893 46.408 328.469 46.264 329.117 45.976C329.765 45.664 330.329 45.292 330.809 44.86V38.956C328.649 38.956 327.029 39.328 325.949 40.072C324.893 40.792 324.365 41.728 324.365 42.88C324.365 44.032 324.629 44.908 325.157 45.508C325.709 46.108 326.453 46.408 327.389 46.408ZM339.788 46.84L341.804 46.516V32.404L339.5 31.756V29.272L345.476 28.516L345.908 28.804L346.448 29.992V31.504C347.24 30.736 348.368 30.064 349.832 29.488C351.32 28.888 352.604 28.588 353.684 28.588C354.98 28.588 356.024 28.804 356.816 29.236C357.632 29.668 358.244 30.34 358.652 31.252C359.444 30.532 360.488 29.908 361.784 29.38C363.08 28.852 364.352 28.588 365.6 28.588C367.736 28.588 369.248 29.212 370.136 30.46C371.024 31.708 371.468 33.748 371.468 36.58V46.516L373.808 46.84V49H364.484V46.84L366.356 46.516V36.724C366.356 34.852 366.128 33.544 365.672 32.8C365.24 32.032 364.4 31.648 363.152 31.648C362.48 31.648 361.784 31.804 361.064 32.116C360.368 32.404 359.744 32.764 359.192 33.196C359.36 34.108 359.444 35.248 359.444 36.616V46.516L361.676 46.84V49H352.28V46.84L354.26 46.516V36.616C354.26 35.368 354.176 34.396 354.008 33.7C353.864 32.98 353.576 32.464 353.144 32.152C352.712 31.816 352.088 31.648 351.272 31.648C350.504 31.648 349.736 31.828 348.968 32.188C348.224 32.524 347.552 32.932 346.952 33.412V46.516L349.076 46.84V49H339.788V46.84ZM376.245 39.028C376.245 36.772 376.689 34.852 377.577 33.268C378.489 31.684 379.701 30.496 381.213 29.704C382.725 28.888 384.369 28.48 386.145 28.48C389.169 28.48 391.497 29.416 393.129 31.288C394.785 33.136 395.613 35.656 395.613 38.848C395.613 41.128 395.157 43.072 394.245 44.68C393.357 46.264 392.157 47.452 390.645 48.244C389.157 49.012 387.513 49.396 385.713 49.396C382.713 49.396 380.385 48.472 378.729 46.624C377.073 44.752 376.245 42.22 376.245 39.028ZM386.001 47.056C388.713 47.056 390.069 44.44 390.069 39.208C390.069 36.472 389.745 34.396 389.097 32.98C388.449 31.54 387.393 30.82 385.929 30.82C383.145 30.82 381.753 33.436 381.753 38.668C381.753 41.404 382.089 43.492 382.761 44.932C383.457 46.348 384.537 47.056 386.001 47.056Z" fill="black"/>
<path d="M109.764 68.626L109.53 71.578H108.288L108.09 69.67L103.896 69.508L103.248 74.566L107.622 74.44L107.46 75.862L103.14 75.664L102.42 81.028L104.652 81.262L104.58 82H99.108L99.18 81.262L100.476 81.046L101.916 69.616L100.692 69.418L100.8 68.626H109.764ZM112.612 80.578C112.612 80.722 112.636 80.836 112.684 80.92C112.744 80.992 112.816 81.028 112.9 81.028C113.032 81.028 113.164 80.992 113.296 80.92C113.44 80.836 113.614 80.698 113.818 80.506L114.052 80.974C113.872 81.226 113.596 81.49 113.224 81.766C112.852 82.042 112.414 82.18 111.91 82.18C111.49 82.18 111.166 82.084 110.938 81.892C110.722 81.7 110.632 81.418 110.668 81.046C110.728 80.518 110.884 79.384 111.136 77.644C111.472 75.316 111.676 73.858 111.748 73.27L110.632 72.838L110.758 72.208L113.422 71.794L113.836 71.992L112.63 80.398L112.612 80.578ZM113.116 69.886C112.84 69.886 112.6 69.784 112.396 69.58C112.204 69.376 112.108 69.13 112.108 68.842C112.108 68.47 112.234 68.152 112.486 67.888C112.75 67.624 113.056 67.492 113.404 67.492C113.728 67.492 113.98 67.594 114.16 67.798C114.34 67.99 114.43 68.23 114.43 68.518C114.418 68.902 114.292 69.226 114.052 69.49C113.812 69.754 113.5 69.886 113.116 69.886ZM118.991 74.098C119.483 73.414 120.053 72.856 120.701 72.424C121.349 71.992 122.015 71.776 122.699 71.776C123.383 71.776 123.905 71.98 124.265 72.388C124.637 72.796 124.823 73.462 124.823 74.386C124.823 74.83 124.709 75.67 124.481 76.906L124.373 77.554L124.283 78.076C124.067 79.12 123.953 79.912 123.941 80.452V80.56C123.941 80.872 124.019 81.028 124.175 81.028C124.415 81.028 124.697 80.884 125.021 80.596L125.255 81.082C125.111 81.286 124.847 81.52 124.463 81.784C124.079 82.048 123.641 82.18 123.149 82.18C122.345 82.18 121.943 81.802 121.943 81.046C121.943 80.674 122.057 79.894 122.285 78.706L122.411 78.04L122.483 77.608C122.747 76.204 122.879 75.19 122.879 74.566C122.867 74.014 122.783 73.636 122.627 73.432C122.471 73.228 122.201 73.126 121.817 73.126C121.361 73.126 120.845 73.36 120.269 73.828C119.705 74.284 119.219 74.848 118.811 75.52L117.947 82H116.093L117.245 73.324L116.345 72.874L116.489 72.19L118.829 71.776L119.207 71.974L118.991 74.098ZM134.616 80.38C134.604 80.44 134.598 80.512 134.598 80.596C134.598 80.884 134.688 81.028 134.868 81.028C135.06 81.028 135.336 80.884 135.696 80.596L135.948 81.064C135.756 81.304 135.486 81.55 135.138 81.802C134.79 82.054 134.382 82.18 133.914 82.18C133.182 82.18 132.81 81.79 132.798 81.01V80.632C132.474 81.064 132.06 81.43 131.556 81.73C131.052 82.03 130.488 82.18 129.864 82.18C128.88 82.18 128.142 81.838 127.65 81.154C127.158 80.458 126.912 79.546 126.912 78.418C126.912 77.374 127.134 76.342 127.578 75.322C128.034 74.29 128.694 73.444 129.558 72.784C130.434 72.112 131.466 71.776 132.654 71.776C133.026 71.776 133.464 71.842 133.968 71.974L134.436 68.788L133.23 68.464L133.374 67.816L136.056 67.492L136.47 67.726L134.616 80.38ZM133.788 73.126C133.44 72.886 132.99 72.766 132.438 72.766C131.646 72.766 130.98 73.054 130.44 73.63C129.912 74.206 129.516 74.92 129.252 75.772C129 76.624 128.874 77.47 128.874 78.31C128.874 79.15 129.006 79.81 129.27 80.29C129.546 80.758 129.936 80.992 130.44 80.992C130.92 80.992 131.376 80.842 131.808 80.542C132.24 80.242 132.576 79.9 132.816 79.516L133.788 73.126ZM147.04 71.776C148.228 71.776 149.14 72.136 149.776 72.856C150.412 73.576 150.73 74.602 150.73 75.934C150.73 77.026 150.508 78.052 150.064 79.012C149.632 79.972 149.014 80.746 148.21 81.334C147.418 81.91 146.518 82.198 145.51 82.198C144.322 82.198 143.41 81.838 142.774 81.118C142.138 80.398 141.82 79.372 141.82 78.04C141.82 76.936 142.036 75.904 142.468 74.944C142.912 73.984 143.53 73.216 144.322 72.64C145.126 72.064 146.032 71.776 147.04 71.776ZM146.788 72.766C146.164 72.766 145.63 73.03 145.186 73.558C144.742 74.074 144.406 74.734 144.178 75.538C143.962 76.33 143.854 77.14 143.854 77.968C143.854 80.152 144.508 81.244 145.816 81.244C146.428 81.244 146.95 80.98 147.382 80.452C147.814 79.924 148.138 79.258 148.354 78.454C148.57 77.65 148.678 76.834 148.678 76.006C148.678 73.846 148.048 72.766 146.788 72.766ZM154.82 77.554C154.7 78.538 154.64 79.198 154.64 79.534C154.64 80.098 154.736 80.488 154.928 80.704C155.12 80.92 155.414 81.028 155.81 81.028C156.242 81.028 156.686 80.878 157.142 80.578C157.598 80.266 157.988 79.894 158.312 79.462L159.32 71.866H161.192L160.04 80.38L160.022 80.578C160.022 80.722 160.046 80.836 160.094 80.92C160.154 80.992 160.226 81.028 160.31 81.028C160.55 81.028 160.856 80.848 161.228 80.488L161.462 80.974C161.318 81.202 161.048 81.46 160.652 81.748C160.256 82.024 159.818 82.162 159.338 82.162C158.966 82.162 158.684 82.066 158.492 81.874C158.3 81.682 158.216 81.412 158.24 81.064C158.24 81.088 158.258 80.884 158.294 80.452L158.276 80.434C157.316 81.598 156.236 82.18 155.036 82.18C154.352 82.18 153.8 82 153.38 81.64C152.96 81.268 152.744 80.662 152.732 79.822C152.732 79.258 152.846 78.214 153.074 76.69L153.542 73.342L152.588 72.82L152.714 72.136L155.162 71.794L155.54 71.992L154.928 76.762L154.82 77.554ZM165.54 78.832C165.456 79.384 165.414 79.822 165.414 80.146C165.414 80.434 165.468 80.638 165.576 80.758C165.696 80.878 165.9 80.938 166.188 80.938C166.44 80.938 166.734 80.866 167.07 80.722C167.418 80.578 167.688 80.428 167.88 80.272L168.06 80.884C167.796 81.184 167.382 81.478 166.818 81.766C166.254 82.042 165.672 82.18 165.072 82.18C164.58 82.18 164.19 82.06 163.902 81.82C163.626 81.568 163.488 81.184 163.488 80.668C163.488 80.44 163.53 79.96 163.614 79.228L164.424 73.144H163.344L163.506 72.406L164.622 72.028C164.886 71.74 165.264 70.918 165.756 69.562H166.764L166.458 72.01H168.762L168.618 73.144H166.314L165.54 78.832ZM174.356 73.576C174.308 73.372 174.254 73.228 174.194 73.144C174.134 73.048 174.05 73 173.942 73C173.834 73 173.738 73.024 173.654 73.072C173.582 73.12 173.48 73.192 173.348 73.288L173.114 72.748C173.222 72.58 173.456 72.382 173.816 72.154C174.176 71.914 174.56 71.794 174.968 71.794C175.4 71.794 175.706 71.896 175.886 72.1C176.078 72.292 176.204 72.592 176.264 73L176.966 78.868L177.146 80.596L177.848 78.742L180.548 71.866H182.258L182.996 78.976L183.14 80.578L184.058 79.228C184.514 78.544 184.934 77.746 185.318 76.834C185.702 75.922 185.906 75.064 185.93 74.26C185.93 74.056 185.876 73.768 185.768 73.396C185.684 73.12 185.642 72.898 185.642 72.73C185.642 72.454 185.726 72.232 185.894 72.064C186.074 71.884 186.302 71.794 186.578 71.794C187.322 71.794 187.706 72.388 187.73 73.576C187.73 74.332 187.418 75.304 186.794 76.492C186.182 77.668 185.498 78.772 184.742 79.804L183.212 82.072L181.7 82.162L181.304 79.066L180.926 75.502L180.836 74.278L180.458 75.52L178.838 79.066L177.506 82.054L175.922 82.18L175.346 79.066L174.356 73.576ZM191.849 74.206C192.329 73.498 192.899 72.916 193.559 72.46C194.231 72.004 194.915 71.776 195.611 71.776C196.295 71.776 196.817 71.98 197.177 72.388C197.549 72.796 197.735 73.468 197.735 74.404C197.735 74.836 197.663 75.442 197.519 76.222C197.375 76.99 197.291 77.434 197.267 77.554C197.243 77.746 197.213 77.92 197.177 78.076C197.153 78.22 197.129 78.346 197.105 78.454C197.045 78.826 196.985 79.204 196.925 79.588C196.865 79.972 196.835 80.284 196.835 80.524C196.835 80.872 196.925 81.046 197.105 81.046C197.237 81.046 197.363 81.01 197.483 80.938C197.615 80.866 197.789 80.734 198.005 80.542L198.239 81.028C198.071 81.268 197.795 81.52 197.411 81.784C197.039 82.048 196.601 82.18 196.097 82.18C195.641 82.18 195.317 82.084 195.125 81.892C194.933 81.7 194.837 81.418 194.837 81.046C194.837 80.698 194.933 80.02 195.125 79.012L195.305 78.04L195.377 77.608C195.641 76.204 195.773 75.19 195.773 74.566C195.761 74.014 195.677 73.636 195.521 73.432C195.365 73.228 195.107 73.126 194.747 73.126C194.267 73.126 193.733 73.366 193.145 73.846C192.569 74.326 192.077 74.908 191.669 75.592L190.841 82H188.969L190.661 68.788L189.617 68.464L189.743 67.816L192.299 67.492L192.695 67.726L191.849 74.206ZM205.065 71.776C206.253 71.776 207.165 72.136 207.801 72.856C208.437 73.576 208.755 74.602 208.755 75.934C208.755 77.026 208.533 78.052 208.089 79.012C207.657 79.972 207.039 80.746 206.235 81.334C205.443 81.91 204.543 82.198 203.535 82.198C202.347 82.198 201.435 81.838 200.799 81.118C200.163 80.398 199.845 79.372 199.845 78.04C199.845 76.936 200.061 75.904 200.493 74.944C200.937 73.984 201.555 73.216 202.347 72.64C203.151 72.064 204.057 71.776 205.065 71.776ZM204.813 72.766C204.189 72.766 203.655 73.03 203.211 73.558C202.767 74.074 202.431 74.734 202.203 75.538C201.987 76.33 201.879 77.14 201.879 77.968C201.879 80.152 202.533 81.244 203.841 81.244C204.453 81.244 204.975 80.98 205.407 80.452C205.839 79.924 206.163 79.258 206.379 78.454C206.595 77.65 206.703 76.834 206.703 76.006C206.703 73.846 206.073 72.766 204.813 72.766ZM215.154 73.576C215.106 73.372 215.052 73.228 214.992 73.144C214.932 73.048 214.848 73 214.74 73C214.632 73 214.536 73.024 214.452 73.072C214.38 73.12 214.278 73.192 214.146 73.288L213.912 72.748C214.02 72.58 214.254 72.382 214.614 72.154C214.974 71.914 215.358 71.794 215.766 71.794C216.198 71.794 216.504 71.896 216.684 72.1C216.876 72.292 217.002 72.592 217.062 73L217.764 78.868L217.944 80.596L218.646 78.742L221.346 71.866H223.056L223.794 78.976L223.938 80.578L224.856 79.228C225.312 78.544 225.732 77.746 226.116 76.834C226.5 75.922 226.704 75.064 226.728 74.26C226.728 74.056 226.674 73.768 226.566 73.396C226.482 73.12 226.44 72.898 226.44 72.73C226.44 72.454 226.524 72.232 226.692 72.064C226.872 71.884 227.1 71.794 227.376 71.794C228.12 71.794 228.504 72.388 228.528 73.576C228.528 74.332 228.216 75.304 227.592 76.492C226.98 77.668 226.296 78.772 225.54 79.804L224.01 82.072L222.498 82.162L222.102 79.066L221.724 75.502L221.634 74.278L221.256 75.52L219.636 79.066L218.304 82.054L216.72 82.18L216.144 79.066L215.154 73.576ZM236.986 80.272C236.674 80.74 236.17 81.178 235.474 81.586C234.79 81.994 234.022 82.198 233.17 82.198C232.354 82.198 231.676 82.018 231.136 81.658C230.596 81.286 230.2 80.806 229.948 80.218C229.696 79.618 229.57 78.976 229.57 78.292C229.57 77.128 229.804 76.048 230.272 75.052C230.74 74.044 231.382 73.246 232.198 72.658C233.014 72.07 233.914 71.776 234.898 71.776C235.762 71.776 236.41 71.98 236.842 72.388C237.286 72.796 237.508 73.336 237.508 74.008C237.508 74.872 237.172 75.598 236.5 76.186C235.828 76.762 235.03 77.194 234.106 77.482C233.182 77.77 232.348 77.92 231.604 77.932C231.556 78.784 231.694 79.51 232.018 80.11C232.354 80.71 232.882 81.01 233.602 81.01C234.142 81.01 234.664 80.884 235.168 80.632C235.684 80.368 236.152 80.014 236.572 79.57L236.986 80.272ZM234.466 72.748C233.926 72.748 233.446 72.97 233.026 73.414C232.618 73.858 232.294 74.416 232.054 75.088C231.814 75.748 231.67 76.402 231.622 77.05C232.198 77.026 232.798 76.9 233.422 76.672C234.058 76.432 234.586 76.096 235.006 75.664C235.426 75.22 235.636 74.716 235.636 74.152C235.636 73.696 235.534 73.348 235.33 73.108C235.126 72.868 234.838 72.748 234.466 72.748ZM250.718 80.308C250.706 80.356 250.7 80.422 250.7 80.506C250.7 80.686 250.73 80.818 250.79 80.902C250.862 80.986 250.952 81.028 251.06 81.028C251.252 81.028 251.516 80.878 251.852 80.578L252.104 81.046C251.972 81.262 251.72 81.508 251.348 81.784C250.988 82.048 250.58 82.18 250.124 82.18C249.752 82.18 249.458 82.09 249.242 81.91C249.026 81.718 248.924 81.424 248.936 81.028L249.008 80.506C248.624 80.974 248.174 81.37 247.658 81.694C247.154 82.018 246.608 82.18 246.02 82.18C245.048 82.18 244.322 81.838 243.842 81.154C243.362 80.458 243.122 79.546 243.122 78.418C243.122 77.386 243.35 76.36 243.806 75.34C244.262 74.308 244.928 73.456 245.804 72.784C246.68 72.112 247.706 71.776 248.882 71.776C249.158 71.776 249.47 71.812 249.818 71.884C250.166 71.944 250.484 72.016 250.772 72.1L251.87 71.794L250.718 80.308ZM249.836 73.054C249.524 72.862 249.14 72.766 248.684 72.766C247.916 72.766 247.262 73.048 246.722 73.612C246.182 74.176 245.774 74.884 245.498 75.736C245.234 76.576 245.102 77.422 245.102 78.274C245.102 79.138 245.228 79.81 245.48 80.29C245.744 80.758 246.128 80.992 246.632 80.992C247.052 80.992 247.472 80.836 247.892 80.524C248.324 80.2 248.69 79.834 248.99 79.426L249.836 73.054ZM256.677 74.332C256.821 73.936 257.049 73.546 257.361 73.162C257.685 72.766 258.069 72.442 258.513 72.19C258.957 71.926 259.425 71.794 259.917 71.794C260.205 71.794 260.397 71.836 260.493 71.92L260.079 73.99C259.899 73.858 259.605 73.792 259.197 73.792C258.705 73.792 258.213 73.948 257.721 74.26C257.241 74.56 256.875 74.986 256.623 75.538L255.777 82H253.923L255.057 73.342L254.139 72.892L254.283 72.208L256.497 71.794L256.875 72.01L256.749 73.63L256.677 74.332ZM268.415 80.272C268.103 80.74 267.599 81.178 266.903 81.586C266.219 81.994 265.451 82.198 264.599 82.198C263.783 82.198 263.105 82.018 262.565 81.658C262.025 81.286 261.629 80.806 261.377 80.218C261.125 79.618 260.999 78.976 260.999 78.292C260.999 77.128 261.233 76.048 261.701 75.052C262.169 74.044 262.811 73.246 263.627 72.658C264.443 72.07 265.343 71.776 266.327 71.776C267.191 71.776 267.839 71.98 268.271 72.388C268.715 72.796 268.937 73.336 268.937 74.008C268.937 74.872 268.601 75.598 267.929 76.186C267.257 76.762 266.459 77.194 265.535 77.482C264.611 77.77 263.777 77.92 263.033 77.932C262.985 78.784 263.123 79.51 263.447 80.11C263.783 80.71 264.311 81.01 265.031 81.01C265.571 81.01 266.093 80.884 266.597 80.632C267.113 80.368 267.581 80.014 268.001 79.57L268.415 80.272ZM265.895 72.748C265.355 72.748 264.875 72.97 264.455 73.414C264.047 73.858 263.723 74.416 263.483 75.088C263.243 75.748 263.099 76.402 263.051 77.05C263.627 77.026 264.227 76.9 264.851 76.672C265.487 76.432 266.015 76.096 266.435 75.664C266.855 75.22 267.065 74.716 267.065 74.152C267.065 73.696 266.963 73.348 266.759 73.108C266.555 72.868 266.267 72.748 265.895 72.748Z" fill="black"/>
<path d="M30.5111 55.9037C28.8037 55.9037 27.4145 57.2928 27.4145 59.0003C27.4145 60.7079 28.8036 62.097 30.5111 62.097C32.2186 62.097 33.6078 60.7079 33.6078 59.0003C33.6078 57.2928 32.2185 55.9037 30.5111 55.9037ZM30.5111 60.2419C29.8266 60.2419 29.2696 59.685 29.2696 59.0003C29.2696 58.3157 29.8265 57.7588 30.5111 57.7588C31.1958 57.7588 31.7528 58.3157 31.7528 59.0003C31.7528 59.685 31.1956 60.2419 30.5111 60.2419Z" fill="black"/>
<path d="M62.7217 55.9037C61.0142 55.9037 59.625 57.2928 59.625 59.0003C59.625 60.7079 61.0142 62.097 62.7217 62.097C64.4291 62.097 65.8184 60.7079 65.8184 59.0003C65.8184 57.2928 64.4293 55.9037 62.7217 55.9037ZM62.7217 60.2419C62.0371 60.2419 61.4801 59.685 61.4801 59.0003C61.4801 58.3157 62.0371 57.7588 62.7217 57.7588C63.4063 57.7588 63.9633 58.3157 63.9633 59.0003C63.9633 59.685 63.4064 60.2419 62.7217 60.2419Z" fill="black"/>
<path d="M70.434 32.7845H25.5672C23.0489 32.7845 21 34.8328 21 37.3505V59.3443C21 59.8565 21.4153 60.2718 21.9275 60.2718H24.4272C25.0156 63.091 27.5198 65.2155 30.5112 65.2155C33.5026 65.2155 36.0067 63.091 36.5951 60.2718H56.6378C57.2263 63.091 59.7304 65.2155 62.7218 65.2155C65.7131 65.2155 68.2172 63.091 68.8057 60.2718H74.0725C74.5847 60.2718 75 59.8565 75 59.3443V37.3505C75 34.8328 72.9517 32.7845 70.434 32.7845ZM73.1449 49.2044H68.1313C67.5543 49.2044 67.085 48.7351 67.085 48.1582V39.3243C67.085 38.7474 67.5543 38.278 68.1313 38.278H73.1449V49.2044V49.2044ZM22.8551 57.441H24.4942C24.4122 57.7572 24.3555 58.0833 24.3242 58.4167H22.8551V57.441ZM30.5111 63.3604C28.1069 63.3604 26.1509 61.4045 26.1509 59.0003C26.1509 56.5962 28.1069 54.6403 30.5111 54.6403C32.9153 54.6403 34.8711 56.5962 34.8711 59.0003C34.8711 61.4045 32.9153 63.3604 30.5111 63.3604ZM62.7218 63.3604C60.3176 63.3604 58.3617 61.4045 58.3617 59.0003C58.3617 56.5962 60.3176 54.6403 62.7218 54.6403C65.1259 54.6403 67.0818 56.5962 67.0818 59.0003C67.0818 61.4045 65.1259 63.3604 62.7218 63.3604ZM62.7218 52.7852C60.5551 52.7852 58.645 53.9002 57.5322 55.5859H40.1246C39.6123 55.5859 39.197 56.0012 39.197 56.5134C39.197 57.0257 39.6123 57.441 40.1246 57.441H56.7049C56.6229 57.7572 56.5661 58.0833 56.5348 58.4167H36.698C36.4028 55.2624 33.7413 52.7851 30.5111 52.7851C28.3445 52.7851 26.4343 53.9001 25.3215 55.5858H22.8551V37.3504C22.8551 35.8556 24.0718 34.6395 25.5672 34.6395H70.434C71.6031 34.6395 72.6018 35.3835 72.9814 36.4228H68.1313C66.5315 36.4228 65.2299 37.7244 65.2299 39.3242V48.158C65.2299 49.7579 66.5315 51.0594 68.1313 51.0594H73.1449V52.1724H71.599C71.0868 52.1724 70.6715 52.5877 70.6715 53.1C70.6715 53.6122 71.0868 54.0275 71.599 54.0275H73.1449V55.5858H67.9113C66.7985 53.9002 64.8884 52.7852 62.7218 52.7852ZM68.9087 58.4167C68.8775 58.0833 68.8206 57.7572 68.7386 57.441H73.1449V58.4167H68.9087Z" fill="black"/>
<path d="M61.2155 36.423H27.865C26.2652 36.423 24.9637 37.7245 24.9637 39.3243V48.1582C24.9637 49.758 26.2652 51.0595 27.865 51.0595H61.2155C62.8154 51.0595 64.1169 49.758 64.1169 48.1582V39.3243C64.1169 37.7245 62.8154 36.423 61.2155 36.423ZM50.142 38.278V49.2044H39.3826V38.278H50.142ZM26.8188 48.1582V39.3243C26.8188 38.7474 27.2881 38.278 27.865 38.278H37.5275V49.2044H27.865C27.2881 49.2044 26.8188 48.7351 26.8188 48.1582ZM62.2618 48.1582C62.2618 48.7351 61.7925 49.2044 61.2155 49.2044H51.9971V38.278H61.2155C61.7925 38.278 62.2618 38.7474 62.2618 39.3243V48.1582Z" fill="black"/>
<path d="M38.302 55.7425C37.9543 55.5132 37.4837 55.5422 37.1709 55.82C36.889 56.0703 36.7878 56.4791 36.9173 56.8325C37.0554 57.2096 37.4313 57.459 37.8329 57.4394C38.222 57.4203 38.5645 57.1506 38.676 56.7781C38.7909 56.3945 38.6373 55.9632 38.302 55.7425C38.3527 55.7758 38.2513 55.7091 38.302 55.7425Z" fill="black"/>
</svg>
