<svg width="284" height="71" viewBox="0 0 284 71" fill="none" xmlns="http://www.w3.org/2000/svg">
<rect width="284" height="71" fill="#FFFF00"/>
<path d="M46.875 52.875H31.125C26.175 52.875 22.125 48.825 22.125 43.875V28.125C22.125 23.175 26.175 19.125 31.125 19.125H46.875C51.825 19.125 55.875 23.175 55.875 28.125V43.875C55.875 48.825 51.825 52.875 46.875 52.875Z" stroke="black" stroke-width="2" stroke-miterlimit="10" stroke-linecap="round" stroke-linejoin="round"/>
<path d="M39 43.875C43.3492 43.875 46.875 40.3492 46.875 36C46.875 31.6508 43.3492 28.125 39 28.125C34.6508 28.125 31.125 31.6508 31.125 36C31.125 40.3492 34.6508 43.875 39 43.875Z" stroke="black" stroke-width="2" stroke-miterlimit="10" stroke-linecap="round" stroke-linejoin="round"/>
<path d="M48 27C48.6213 27 49.125 26.4963 49.125 25.875C49.125 25.2537 48.6213 24.75 48 24.75C47.3787 24.75 46.875 25.2537 46.875 25.875C46.875 26.4963 47.3787 27 48 27Z" stroke="black" stroke-width="2" stroke-miterlimit="10" stroke-linecap="round" stroke-linejoin="round"/>
<path d="M79.716 23.952L76.656 23.484V21.252H88.176V23.484L85.008 23.952V45.48L88.176 45.876V48H76.656V45.84L79.716 45.48V23.952ZM93.4368 31.404L91.1328 30.756V28.272L97.1088 27.516H97.2168L98.1168 28.236V29.64L98.0808 30.504C98.9208 29.712 100.013 29.028 101.357 28.452C102.701 27.876 104.057 27.588 105.425 27.588C106.889 27.588 108.029 27.864 108.845 28.416C109.685 28.944 110.285 29.784 110.645 30.936C111.005 32.088 111.185 33.648 111.185 35.616V45.552L113.381 45.84V48H104.093V45.84L106.037 45.552V35.616C106.037 34.368 105.953 33.396 105.785 32.7C105.617 31.98 105.305 31.464 104.849 31.152C104.417 30.816 103.793 30.648 102.977 30.648C101.609 30.648 100.145 31.236 98.5848 32.412V45.516L100.745 45.84V48H91.3488V45.84L93.4368 45.516V31.404ZM119.921 45.048C120.113 45.336 120.545 45.612 121.217 45.876C121.913 46.116 122.609 46.236 123.305 46.236C124.433 46.236 125.273 46.008 125.825 45.552C126.401 45.072 126.689 44.448 126.689 43.68C126.689 42.888 126.341 42.252 125.645 41.772C124.949 41.268 123.773 40.656 122.117 39.936L121.109 39.504C119.453 38.808 118.217 37.968 117.401 36.984C116.585 36 116.177 34.728 116.177 33.168C116.177 32.088 116.501 31.128 117.149 30.288C117.797 29.424 118.709 28.752 119.885 28.272C121.061 27.792 122.417 27.552 123.953 27.552C125.081 27.552 126.041 27.624 126.833 27.768C127.649 27.912 128.501 28.104 129.389 28.344C129.869 28.512 130.229 28.608 130.469 28.632V33.348H127.625L126.797 30.612C126.653 30.372 126.329 30.156 125.825 29.964C125.321 29.772 124.745 29.676 124.097 29.676C123.113 29.676 122.321 29.892 121.721 30.324C121.145 30.732 120.857 31.308 120.857 32.052C120.857 32.724 121.061 33.288 121.469 33.744C121.877 34.176 122.321 34.512 122.801 34.752C123.281 34.992 124.169 35.388 125.465 35.94C126.761 36.492 127.829 37.02 128.669 37.524C129.533 38.028 130.241 38.688 130.793 39.504C131.369 40.296 131.657 41.268 131.657 42.42C131.657 44.196 130.961 45.636 129.569 46.74C128.177 47.844 126.173 48.396 123.557 48.396C122.333 48.396 121.229 48.288 120.245 48.072C119.285 47.856 118.169 47.568 116.897 47.208L116.105 46.956V42.204H119.093L119.921 45.048ZM140.641 48.324C139.129 48.324 138.013 47.976 137.293 47.28C136.573 46.584 136.213 45.48 136.213 43.968V30.756H133.873V28.884C134.065 28.812 134.413 28.692 134.917 28.524C135.421 28.332 135.805 28.176 136.069 28.056C136.477 27.744 136.825 27.204 137.113 26.436C137.329 25.932 137.725 24.684 138.301 22.692H141.181L141.325 27.984H146.833V30.756H141.361V40.872C141.361 42.216 141.397 43.164 141.469 43.716C141.541 44.268 141.697 44.628 141.937 44.796C142.177 44.94 142.597 45.012 143.197 45.012C143.797 45.012 144.421 44.952 145.069 44.832C145.717 44.688 146.257 44.52 146.689 44.328L147.373 46.344C146.701 46.848 145.717 47.304 144.421 47.712C143.125 48.12 141.865 48.324 140.641 48.324ZM148.892 42.384C148.892 40.2 149.984 38.556 152.168 37.452C154.376 36.348 157.22 35.784 160.7 35.76V34.932C160.7 33.948 160.592 33.18 160.376 32.628C160.184 32.076 159.812 31.668 159.26 31.404C158.732 31.116 157.952 30.972 156.92 30.972C155.744 30.972 154.688 31.128 153.752 31.44C152.816 31.728 151.844 32.112 150.836 32.592L149.72 30.288C150.08 29.976 150.68 29.604 151.52 29.172C152.384 28.74 153.404 28.368 154.58 28.056C155.756 27.72 156.968 27.552 158.216 27.552C160.064 27.552 161.504 27.792 162.536 28.272C163.592 28.752 164.348 29.52 164.804 30.576C165.26 31.632 165.488 33.048 165.488 34.824V45.84H167.432V47.856C166.952 47.976 166.268 48.096 165.38 48.216C164.492 48.336 163.712 48.396 163.04 48.396C162.224 48.396 161.672 48.276 161.384 48.036C161.12 47.796 160.988 47.304 160.988 46.56V45.588C160.34 46.308 159.5 46.956 158.468 47.532C157.436 48.108 156.272 48.396 154.976 48.396C153.872 48.396 152.852 48.168 151.916 47.712C151.004 47.232 150.272 46.548 149.72 45.66C149.168 44.748 148.892 43.656 148.892 42.384ZM157.28 45.408C157.784 45.408 158.36 45.264 159.008 44.976C159.656 44.664 160.22 44.292 160.7 43.86V37.956C158.54 37.956 156.92 38.328 155.84 39.072C154.784 39.792 154.256 40.728 154.256 41.88C154.256 43.032 154.52 43.908 155.048 44.508C155.6 45.108 156.344 45.408 157.28 45.408ZM178.391 57.72C175.175 57.72 172.847 57.216 171.407 56.208C169.967 55.2 169.247 53.832 169.247 52.104C169.247 51.12 169.571 50.184 170.219 49.296C170.891 48.432 171.695 47.784 172.631 47.352C171.527 46.704 170.975 45.672 170.975 44.256C170.975 43.44 171.239 42.672 171.767 41.952C172.295 41.208 172.979 40.632 173.819 40.224C172.499 39.72 171.515 38.952 170.867 37.92C170.219 36.888 169.895 35.664 169.895 34.248C169.895 32.88 170.291 31.692 171.083 30.684C171.899 29.652 172.979 28.86 174.323 28.308C175.691 27.756 177.167 27.48 178.751 27.48C181.559 27.48 183.647 28.02 185.015 29.1C185.327 28.692 185.855 28.308 186.599 27.948C187.343 27.588 188.111 27.408 188.903 27.408H190.163V31.332H186.455C186.815 32.1 186.995 32.916 186.995 33.78C187.019 35.964 186.251 37.716 184.691 39.036C183.131 40.332 180.995 40.98 178.283 40.98C177.155 40.98 176.207 40.896 175.439 40.728C175.199 41.04 175.007 41.376 174.863 41.736C174.743 42.072 174.683 42.372 174.683 42.636C174.683 43.428 174.959 43.968 175.511 44.256C176.087 44.544 177.107 44.688 178.571 44.688H182.423C187.319 44.688 189.767 46.464 189.767 50.016C189.767 51.504 189.239 52.836 188.183 54.012C187.127 55.188 185.723 56.1 183.971 56.748C182.219 57.396 180.359 57.72 178.391 57.72ZM178.643 38.748C180.875 38.748 181.991 37.224 181.991 34.176C181.991 32.616 181.703 31.476 181.127 30.756C180.575 30.012 179.723 29.64 178.571 29.64C177.443 29.64 176.567 30.012 175.943 30.756C175.343 31.476 175.043 32.568 175.043 34.032C175.043 37.176 176.243 38.748 178.643 38.748ZM178.931 55.236C180.443 55.236 181.751 54.864 182.855 54.12C183.959 53.4 184.511 52.392 184.511 51.096C184.511 50.064 184.235 49.32 183.683 48.864C183.155 48.408 182.195 48.18 180.803 48.18H176.879C176.279 48.18 175.727 48.144 175.223 48.072C174.575 48.936 174.251 49.968 174.251 51.168C174.251 52.488 174.611 53.496 175.331 54.192C176.051 54.888 177.251 55.236 178.931 55.236ZM192.073 45.876L194.449 45.588V31.404L192.145 30.756V28.272L197.725 27.516H197.833L198.733 28.236V29.028L198.625 31.944H198.733C198.901 31.464 199.297 30.876 199.921 30.18C200.545 29.46 201.325 28.836 202.261 28.308C203.221 27.756 204.253 27.48 205.357 27.48C205.885 27.48 206.341 27.552 206.725 27.696V33.096C206.005 32.592 205.129 32.34 204.097 32.34C202.345 32.34 200.821 32.808 199.525 33.744V45.552L203.701 45.876V48H192.073V45.876ZM208.622 42.384C208.622 40.2 209.714 38.556 211.898 37.452C214.106 36.348 216.95 35.784 220.43 35.76V34.932C220.43 33.948 220.322 33.18 220.106 32.628C219.914 32.076 219.542 31.668 218.99 31.404C218.462 31.116 217.682 30.972 216.65 30.972C215.474 30.972 214.418 31.128 213.482 31.44C212.546 31.728 211.574 32.112 210.566 32.592L209.45 30.288C209.81 29.976 210.41 29.604 211.25 29.172C212.114 28.74 213.134 28.368 214.31 28.056C215.486 27.72 216.698 27.552 217.946 27.552C219.794 27.552 221.234 27.792 222.266 28.272C223.322 28.752 224.078 29.52 224.534 30.576C224.99 31.632 225.218 33.048 225.218 34.824V45.84H227.162V47.856C226.682 47.976 225.998 48.096 225.11 48.216C224.222 48.336 223.442 48.396 222.77 48.396C221.954 48.396 221.402 48.276 221.114 48.036C220.85 47.796 220.718 47.304 220.718 46.56V45.588C220.07 46.308 219.23 46.956 218.198 47.532C217.166 48.108 216.002 48.396 214.706 48.396C213.602 48.396 212.582 48.168 211.646 47.712C210.734 47.232 210.002 46.548 209.45 45.66C208.898 44.748 208.622 43.656 208.622 42.384ZM217.01 45.408C217.514 45.408 218.09 45.264 218.738 44.976C219.386 44.664 219.95 44.292 220.43 43.86V37.956C218.27 37.956 216.65 38.328 215.57 39.072C214.514 39.792 213.986 40.728 213.986 41.88C213.986 43.032 214.25 43.908 214.778 44.508C215.33 45.108 216.074 45.408 217.01 45.408ZM229.409 45.84L231.425 45.516V31.404L229.121 30.756V28.272L235.097 27.516L235.529 27.804L236.069 28.992V30.504C236.861 29.736 237.989 29.064 239.453 28.488C240.941 27.888 242.225 27.588 243.305 27.588C244.601 27.588 245.645 27.804 246.437 28.236C247.253 28.668 247.865 29.34 248.273 30.252C249.065 29.532 250.109 28.908 251.405 28.38C252.701 27.852 253.973 27.588 255.221 27.588C257.357 27.588 258.869 28.212 259.757 29.46C260.645 30.708 261.089 32.748 261.089 35.58V45.516L263.429 45.84V48H254.105V45.84L255.977 45.516V35.724C255.977 33.852 255.749 32.544 255.293 31.8C254.861 31.032 254.021 30.648 252.773 30.648C252.101 30.648 251.405 30.804 250.685 31.116C249.989 31.404 249.365 31.764 248.813 32.196C248.981 33.108 249.065 34.248 249.065 35.616V45.516L251.297 45.84V48H241.901V45.84L243.881 45.516V35.616C243.881 34.368 243.797 33.396 243.629 32.7C243.485 31.98 243.197 31.464 242.765 31.152C242.333 30.816 241.709 30.648 240.893 30.648C240.125 30.648 239.357 30.828 238.589 31.188C237.845 31.524 237.173 31.932 236.573 32.412V45.516L238.697 45.84V48H229.409V45.84Z" fill="black"/>
</svg>
