<svg width="744" height="99" viewBox="0 0 744 99" fill="none" xmlns="http://www.w3.org/2000/svg">
<rect width="744" height="99" fill="#FFFF00"/>
<g clip-path="url(#clip0_1_10)">
<path d="M56.9989 50.7999C64.9385 50.7999 71.3985 44.3399 71.3985 36.4004C71.3985 28.4608 64.9385 22.0008 56.9989 22.0008C49.0594 22.0008 42.5994 28.4608 42.5994 36.4004C42.5994 44.3399 49.0594 50.7999 56.9989 50.7999ZM56.9989 23.8007C63.9467 23.8007 69.5986 29.4525 69.5986 36.4004C69.5986 43.3483 63.9468 49 56.9989 49C50.051 49 44.3992 43.3483 44.3992 36.4004C44.3992 29.4525 50.0512 23.8007 56.9989 23.8007Z" fill="black"/>
<path d="M74.516 59.7997C73.5234 58.079 71.3139 57.4913 69.6552 58.4525L59.2965 63.4942C57.6864 64.2996 56.0611 64.2996 52.499 64.2996C49.0171 64.2996 43.7008 63.4204 43.6478 63.4122C43.1528 63.3322 42.6929 63.6624 42.6119 64.1511C42.53 64.6417 42.8612 65.106 43.3508 65.187C43.5749 65.2248 48.8668 66.0996 52.499 66.0996C56.2356 66.0996 58.1113 66.0996 60.093 65.1088L70.4984 60.041C70.9141 59.8008 71.3993 59.7369 71.8646 59.861C72.3281 59.9861 72.7169 60.284 72.9563 60.6998C73.1975 61.1165 73.2614 61.6015 73.1371 62.066C73.0129 62.5304 72.7151 62.9182 72.2732 63.1739L60.1047 70.7472C60.0795 70.7643 57.483 72.3995 51.5991 72.3995C46.498 72.3995 38.6152 68.0562 38.5017 67.9941C38.4207 67.9545 36.4686 66.9997 32.6996 66.9997C32.2029 66.9997 31.7997 67.4029 31.7997 67.8996C31.7997 68.3963 32.2029 68.7995 32.6996 68.7995C35.9729 68.7995 37.6594 69.587 37.6629 69.587V69.5861C38.0022 69.7751 46.03 74.1994 51.5991 74.1994C58.0969 74.1994 60.9785 72.3275 61.074 72.2635L73.1984 64.7173C74.0309 64.2367 74.6266 63.46 74.8751 62.5321C75.1253 61.6023 74.9966 60.6322 74.516 59.7997Z" fill="black"/>
<path d="M56.9989 40.9003C56.0063 40.9003 55.1989 40.0931 55.1989 39.1003C55.1989 38.6036 54.7967 38.2004 54.299 38.2004C53.8013 38.2004 53.399 38.6036 53.399 39.1003C53.399 40.7725 54.5501 42.1701 56.099 42.5724V42.7003C56.099 43.197 56.5012 43.6002 56.9989 43.6002C57.4966 43.6002 57.8988 43.197 57.8988 42.7003V42.5724C59.4477 42.1702 60.5988 40.7725 60.5988 39.1003C60.5988 37.1149 58.9842 35.5004 56.9989 35.5004C56.0063 35.5004 55.1989 34.6932 55.1989 33.7005C55.1989 32.7078 56.0062 31.9005 56.9989 31.9005C57.9915 31.9005 58.7989 32.7077 58.7989 33.7005C58.7989 34.1972 59.2011 34.6004 59.6988 34.6004C60.1965 34.6004 60.5988 34.1972 60.5988 33.7005C60.5988 32.0283 59.4477 30.6307 57.8988 30.2283V30.1005C57.8988 29.6038 57.4966 29.2006 56.9989 29.2006C56.5012 29.2006 56.099 29.6038 56.099 30.1005V30.2283C54.5501 30.6306 53.399 32.0283 53.399 33.7005C53.399 35.6859 55.0136 37.3003 56.9989 37.3003C57.9915 37.3003 58.7989 38.1076 58.7989 39.1003C58.7989 40.0929 57.9917 40.9003 56.9989 40.9003Z" fill="black"/>
<path d="M27.2998 50.7999H21.8999C21.4032 50.7999 21 51.2031 21 51.6999C21 52.1966 21.4032 52.5998 21.8999 52.5998H27.2998C27.7957 52.5998 28.1997 53.0038 28.1997 53.4997V73.2991C28.1997 73.795 27.7957 74.1991 27.2998 74.1991H21.8999C21.4032 74.1991 21 74.6023 21 75.099C21 75.5957 21.4032 75.9989 21.8999 75.9989H27.2998C28.7883 75.9989 29.9997 74.7876 29.9997 73.299V53.4998C29.9997 52.0113 28.7883 50.7999 27.2998 50.7999Z" fill="black"/>
<path d="M32.6996 56.1998H39.8994C40.9497 56.1998 42.7344 57.539 44.3093 58.7197C46.2838 60.201 48.1495 61.5996 49.7991 61.5996H55.1989C56.566 61.5996 57.2445 62.2196 57.2626 62.2359C57.4381 62.4114 57.6685 62.4996 57.8989 62.4996C58.1293 62.4996 58.3596 62.4114 58.5351 62.2359C58.887 61.884 58.887 61.3152 58.5351 60.9633C58.4164 60.8446 57.3112 59.7996 55.1989 59.7996H49.7991C48.7489 59.7996 46.9642 58.4604 45.3893 57.2797C43.4147 55.7984 41.549 54.3998 39.8994 54.3998H32.6996C32.2029 54.3998 31.7997 54.803 31.7997 55.2997C31.7997 55.7965 32.2029 56.1998 32.6996 56.1998Z" fill="black"/>
<path d="M25.4999 70.1494C25.4999 69.4051 24.8942 68.7994 24.1499 68.7994C23.4057 68.7994 22.8 69.4051 22.8 70.1494C22.8 70.8937 23.4057 71.4994 24.1499 71.4994C24.8942 71.4994 25.4999 70.8937 25.4999 70.1494Z" fill="black"/>
</g>
<path d="M109.692 49.396C108.396 49.396 107.232 49.288 106.2 49.072C105.168 48.856 104.016 48.568 102.744 48.208C101.904 47.968 101.34 47.836 101.052 47.812L101.376 41.152H104.292L105.084 45.796C105.396 46.132 105.948 46.432 106.74 46.696C107.556 46.96 108.48 47.092 109.512 47.092C111.12 47.092 112.32 46.744 113.112 46.048C113.928 45.328 114.336 44.332 114.336 43.06C114.336 42.22 114.096 41.5 113.616 40.9C113.136 40.276 112.476 39.724 111.636 39.244C110.796 38.74 109.644 38.164 108.18 37.516C106.188 36.604 104.532 35.524 103.212 34.276C101.916 33.004 101.268 31.288 101.268 29.128C101.268 27.784 101.616 26.572 102.312 25.492C103.008 24.388 104.04 23.524 105.408 22.9C106.8 22.252 108.492 21.928 110.484 21.928C111.66 21.928 112.692 22.012 113.58 22.18C114.492 22.348 115.476 22.576 116.532 22.864C117.156 23.032 117.624 23.14 117.936 23.188L117.72 29.488H114.84L114.084 25.06C113.868 24.844 113.436 24.64 112.788 24.448C112.14 24.232 111.42 24.124 110.628 24.124C109.188 24.124 108.096 24.46 107.352 25.132C106.632 25.78 106.272 26.656 106.272 27.76C106.272 28.648 106.536 29.416 107.064 30.064C107.616 30.712 108.276 31.264 109.044 31.72C109.812 32.152 111.024 32.776 112.68 33.592C114.024 34.24 115.176 34.876 116.136 35.5C117.096 36.124 117.924 36.94 118.62 37.948C119.316 38.932 119.664 40.096 119.664 41.44C119.664 42.76 119.328 44.02 118.656 45.22C118.008 46.42 116.928 47.416 115.416 48.208C113.928 49 112.02 49.396 109.692 49.396ZM138.547 49.36C137.755 49.36 137.179 49.192 136.819 48.856C136.459 48.52 136.279 48.016 136.279 47.344V46.372C135.631 47.164 134.719 47.872 133.543 48.496C132.367 49.096 131.191 49.396 130.015 49.396C127.711 49.396 126.067 48.808 125.083 47.632C124.099 46.432 123.607 44.464 123.607 41.728V31.576L121.807 31.072V29.02L127.927 28.552H127.963L128.683 29.056V41.728C128.683 43.48 128.899 44.704 129.331 45.4C129.763 46.096 130.567 46.444 131.743 46.444C133.159 46.444 134.479 45.892 135.703 44.788V31.576L133.291 31.036V29.02L139.807 28.552H139.879L140.743 29.056V46.768H142.759L142.723 48.82C142.627 48.844 142.183 48.94 141.391 49.108C140.599 49.276 139.651 49.36 138.547 49.36ZM165.212 38.344C165.212 40.36 164.792 42.208 163.952 43.888C163.136 45.568 161.924 46.912 160.316 47.92C158.732 48.904 156.836 49.396 154.628 49.396C154.148 49.396 153.644 49.348 153.116 49.252C152.612 49.18 152.204 49.084 151.892 48.964L152 51.952V55.228L155.348 55.66V57.712H144.656V55.66L146.996 55.228V32.404L144.656 31.756V29.272L150.596 28.516H150.668L151.568 29.236V31.252C152.168 30.508 152.984 29.86 154.016 29.308C155.048 28.756 156.176 28.48 157.4 28.48C159.68 28.48 161.552 29.296 163.016 30.928C164.48 32.536 165.212 35.008 165.212 38.344ZM155.528 31.468C154.808 31.468 154.124 31.624 153.476 31.936C152.828 32.248 152.336 32.596 152 32.98V46.336C152.168 46.576 152.504 46.78 153.008 46.948C153.536 47.116 154.112 47.2 154.736 47.2C156.296 47.2 157.532 46.528 158.444 45.184C159.38 43.816 159.848 41.68 159.848 38.776C159.848 36.328 159.452 34.504 158.66 33.304C157.868 32.08 156.824 31.468 155.528 31.468ZM188.063 38.344C188.063 40.36 187.643 42.208 186.803 43.888C185.987 45.568 184.775 46.912 183.167 47.92C181.583 48.904 179.687 49.396 177.479 49.396C176.999 49.396 176.495 49.348 175.967 49.252C175.463 49.18 175.055 49.084 174.743 48.964L174.851 51.952V55.228L178.199 55.66V57.712H167.507V55.66L169.847 55.228V32.404L167.507 31.756V29.272L173.447 28.516H173.519L174.419 29.236V31.252C175.019 30.508 175.835 29.86 176.867 29.308C177.899 28.756 179.027 28.48 180.251 28.48C182.531 28.48 184.403 29.296 185.867 30.928C187.331 32.536 188.063 35.008 188.063 38.344ZM178.379 31.468C177.659 31.468 176.975 31.624 176.327 31.936C175.679 32.248 175.187 32.596 174.851 32.98V46.336C175.019 46.576 175.355 46.78 175.859 46.948C176.387 47.116 176.963 47.2 177.587 47.2C179.147 47.2 180.383 46.528 181.295 45.184C182.231 43.816 182.699 41.68 182.699 38.776C182.699 36.328 182.303 34.504 181.511 33.304C180.719 32.08 179.675 31.468 178.379 31.468ZM191.007 39.028C191.007 36.772 191.451 34.852 192.339 33.268C193.251 31.684 194.463 30.496 195.975 29.704C197.487 28.888 199.131 28.48 200.907 28.48C203.931 28.48 206.259 29.416 207.891 31.288C209.547 33.136 210.375 35.656 210.375 38.848C210.375 41.128 209.919 43.072 209.007 44.68C208.119 46.264 206.919 47.452 205.407 48.244C203.919 49.012 202.275 49.396 200.475 49.396C197.475 49.396 195.147 48.472 193.491 46.624C191.835 44.752 191.007 42.22 191.007 39.028ZM200.763 47.056C203.475 47.056 204.831 44.44 204.831 39.208C204.831 36.472 204.507 34.396 203.859 32.98C203.211 31.54 202.155 30.82 200.691 30.82C197.907 30.82 196.515 33.436 196.515 38.668C196.515 41.404 196.851 43.492 197.523 44.932C198.219 46.348 199.299 47.056 200.763 47.056ZM213.647 46.876L216.023 46.588V32.404L213.719 31.756V29.272L219.299 28.516H219.407L220.307 29.236V30.028L220.199 32.944H220.307C220.475 32.464 220.871 31.876 221.495 31.18C222.119 30.46 222.899 29.836 223.835 29.308C224.795 28.756 225.827 28.48 226.931 28.48C227.459 28.48 227.915 28.552 228.299 28.696V34.096C227.579 33.592 226.703 33.34 225.671 33.34C223.919 33.34 222.395 33.808 221.099 34.744V46.552L225.275 46.876V49H213.647V46.876ZM236.641 49.324C235.129 49.324 234.013 48.976 233.293 48.28C232.573 47.584 232.213 46.48 232.213 44.968V31.756H229.873V29.884C230.065 29.812 230.413 29.692 230.917 29.524C231.421 29.332 231.805 29.176 232.069 29.056C232.477 28.744 232.825 28.204 233.113 27.436C233.329 26.932 233.725 25.684 234.301 23.692H237.181L237.325 28.984H242.833V31.756H237.361V41.872C237.361 43.216 237.397 44.164 237.469 44.716C237.541 45.268 237.697 45.628 237.937 45.796C238.177 45.94 238.597 46.012 239.197 46.012C239.797 46.012 240.421 45.952 241.069 45.832C241.717 45.688 242.257 45.52 242.689 45.328L243.373 47.344C242.701 47.848 241.717 48.304 240.421 48.712C239.125 49.12 237.865 49.324 236.641 49.324ZM244.892 43.384C244.892 41.2 245.984 39.556 248.168 38.452C250.376 37.348 253.22 36.784 256.7 36.76V35.932C256.7 34.948 256.592 34.18 256.376 33.628C256.184 33.076 255.812 32.668 255.26 32.404C254.732 32.116 253.952 31.972 252.92 31.972C251.744 31.972 250.688 32.128 249.752 32.44C248.816 32.728 247.844 33.112 246.836 33.592L245.72 31.288C246.08 30.976 246.68 30.604 247.52 30.172C248.384 29.74 249.404 29.368 250.58 29.056C251.756 28.72 252.968 28.552 254.216 28.552C256.064 28.552 257.504 28.792 258.536 29.272C259.592 29.752 260.348 30.52 260.804 31.576C261.26 32.632 261.488 34.048 261.488 35.824V46.84H263.432V48.856C262.952 48.976 262.268 49.096 261.38 49.216C260.492 49.336 259.712 49.396 259.04 49.396C258.224 49.396 257.672 49.276 257.384 49.036C257.12 48.796 256.988 48.304 256.988 47.56V46.588C256.34 47.308 255.5 47.956 254.468 48.532C253.436 49.108 252.272 49.396 250.976 49.396C249.872 49.396 248.852 49.168 247.916 48.712C247.004 48.232 246.272 47.548 245.72 46.66C245.168 45.748 244.892 44.656 244.892 43.384ZM253.28 46.408C253.784 46.408 254.36 46.264 255.008 45.976C255.656 45.664 256.22 45.292 256.7 44.86V38.956C254.54 38.956 252.92 39.328 251.84 40.072C250.784 40.792 250.256 41.728 250.256 42.88C250.256 44.032 250.52 44.908 251.048 45.508C251.6 46.108 252.344 46.408 253.28 46.408ZM265.211 39.1C265.211 37.036 265.619 35.2 266.435 33.592C267.275 31.984 268.463 30.736 269.999 29.848C271.559 28.936 273.371 28.48 275.435 28.48C276.395 28.48 277.223 28.552 277.919 28.696C278.615 28.84 279.395 29.032 280.259 29.272L281.303 29.56L281.087 35.716H277.955L277.055 31.756C276.911 31.132 276.203 30.82 274.931 30.82C273.587 30.82 272.531 31.408 271.763 32.584C271.019 33.76 270.635 35.596 270.611 38.092C270.611 40.732 271.067 42.76 271.979 44.176C272.891 45.568 274.103 46.264 275.615 46.264C277.439 46.264 279.119 45.772 280.655 44.788L281.483 46.66C280.859 47.332 279.899 47.956 278.603 48.532C277.331 49.108 275.951 49.396 274.463 49.396C271.391 49.396 269.075 48.448 267.515 46.552C265.979 44.656 265.211 42.172 265.211 39.1ZM288.631 25.708C287.767 25.708 287.083 25.456 286.579 24.952C286.075 24.448 285.823 23.8 285.823 23.008C285.823 22.096 286.111 21.34 286.687 20.74C287.263 20.14 288.031 19.84 288.991 19.84C289.951 19.84 290.683 20.104 291.187 20.632C291.691 21.136 291.943 21.772 291.943 22.54C291.943 23.5 291.655 24.268 291.079 24.844C290.503 25.42 289.699 25.708 288.667 25.708H288.631ZM286.723 32.404L284.167 31.72V29.308L290.755 28.516H290.827L291.835 29.236V46.552L294.247 46.84V49H284.203V46.84L286.723 46.516V32.404ZM304.902 39.1C304.902 37.036 305.31 35.2 306.126 33.592C306.966 31.984 308.154 30.736 309.69 29.848C311.25 28.936 313.062 28.48 315.126 28.48C316.086 28.48 316.914 28.552 317.61 28.696C318.306 28.84 319.086 29.032 319.95 29.272L320.994 29.56L320.778 35.716H317.646L316.746 31.756C316.602 31.132 315.894 30.82 314.622 30.82C313.278 30.82 312.222 31.408 311.454 32.584C310.71 33.76 310.326 35.596 310.302 38.092C310.302 40.732 310.758 42.76 311.67 44.176C312.582 45.568 313.794 46.264 315.306 46.264C317.13 46.264 318.81 45.772 320.346 44.788L321.174 46.66C320.55 47.332 319.59 47.956 318.294 48.532C317.022 49.108 315.642 49.396 314.154 49.396C311.082 49.396 308.766 48.448 307.206 46.552C305.67 44.656 304.902 42.172 304.902 39.1ZM324.038 39.028C324.038 36.772 324.482 34.852 325.37 33.268C326.282 31.684 327.494 30.496 329.006 29.704C330.518 28.888 332.162 28.48 333.938 28.48C336.962 28.48 339.29 29.416 340.922 31.288C342.578 33.136 343.406 35.656 343.406 38.848C343.406 41.128 342.95 43.072 342.038 44.68C341.15 46.264 339.95 47.452 338.438 48.244C336.95 49.012 335.306 49.396 333.506 49.396C330.506 49.396 328.178 48.472 326.522 46.624C324.866 44.752 324.038 42.22 324.038 39.028ZM333.794 47.056C336.506 47.056 337.862 44.44 337.862 39.208C337.862 36.472 337.538 34.396 336.89 32.98C336.242 31.54 335.186 30.82 333.722 30.82C330.938 30.82 329.546 33.436 329.546 38.668C329.546 41.404 329.882 43.492 330.554 44.932C331.25 46.348 332.33 47.056 333.794 47.056ZM348.695 32.404L346.391 31.756V29.272L352.367 28.516H352.475L353.375 29.236V30.64L353.339 31.504C354.179 30.712 355.271 30.028 356.615 29.452C357.959 28.876 359.315 28.588 360.683 28.588C362.147 28.588 363.287 28.864 364.103 29.416C364.943 29.944 365.543 30.784 365.903 31.936C366.263 33.088 366.443 34.648 366.443 36.616V46.552L368.639 46.84V49H359.351V46.84L361.295 46.552V36.616C361.295 35.368 361.211 34.396 361.043 33.7C360.875 32.98 360.563 32.464 360.107 32.152C359.675 31.816 359.051 31.648 358.235 31.648C356.867 31.648 355.403 32.236 353.843 33.412V46.516L356.003 46.84V49H346.607V46.84L348.695 46.516V32.404ZM395.961 49.36C395.169 49.36 394.593 49.192 394.233 48.856C393.873 48.52 393.693 48.016 393.693 47.344V46.372C393.045 47.164 392.133 47.872 390.957 48.496C389.781 49.096 388.605 49.396 387.429 49.396C385.125 49.396 383.481 48.808 382.497 47.632C381.513 46.432 381.021 44.464 381.021 41.728V31.576L379.221 31.072V29.02L385.341 28.552H385.377L386.097 29.056V41.728C386.097 43.48 386.313 44.704 386.745 45.4C387.177 46.096 387.981 46.444 389.157 46.444C390.573 46.444 391.893 45.892 393.117 44.788V31.576L390.705 31.036V29.02L397.221 28.552H397.293L398.157 29.056V46.768H400.173L400.137 48.82C400.041 48.844 399.597 48.94 398.805 49.108C398.013 49.276 397.065 49.36 395.961 49.36ZM404.734 32.404L402.43 31.756V29.272L408.406 28.516H408.514L409.414 29.236V30.64L409.378 31.504C410.218 30.712 411.31 30.028 412.654 29.452C413.998 28.876 415.354 28.588 416.722 28.588C418.186 28.588 419.326 28.864 420.142 29.416C420.982 29.944 421.582 30.784 421.942 31.936C422.302 33.088 422.482 34.648 422.482 36.616V46.552L424.678 46.84V49H415.39V46.84L417.334 46.552V36.616C417.334 35.368 417.25 34.396 417.082 33.7C416.914 32.98 416.602 32.464 416.146 32.152C415.714 31.816 415.09 31.648 414.274 31.648C412.906 31.648 411.442 32.236 409.882 33.412V46.516L412.042 46.84V49H402.646V46.84L404.734 46.516V32.404ZM426.826 43.384C426.826 41.2 427.918 39.556 430.102 38.452C432.31 37.348 435.154 36.784 438.634 36.76V35.932C438.634 34.948 438.526 34.18 438.31 33.628C438.118 33.076 437.746 32.668 437.194 32.404C436.666 32.116 435.886 31.972 434.854 31.972C433.678 31.972 432.622 32.128 431.686 32.44C430.75 32.728 429.778 33.112 428.77 33.592L427.654 31.288C428.014 30.976 428.614 30.604 429.454 30.172C430.318 29.74 431.338 29.368 432.514 29.056C433.69 28.72 434.902 28.552 436.15 28.552C437.998 28.552 439.438 28.792 440.47 29.272C441.526 29.752 442.282 30.52 442.738 31.576C443.194 32.632 443.422 34.048 443.422 35.824V46.84H445.366V48.856C444.886 48.976 444.202 49.096 443.314 49.216C442.426 49.336 441.646 49.396 440.974 49.396C440.158 49.396 439.606 49.276 439.318 49.036C439.054 48.796 438.922 48.304 438.922 47.56V46.588C438.274 47.308 437.434 47.956 436.402 48.532C435.37 49.108 434.206 49.396 432.91 49.396C431.806 49.396 430.786 49.168 429.85 48.712C428.938 48.232 428.206 47.548 427.654 46.66C427.102 45.748 426.826 44.656 426.826 43.384ZM435.214 46.408C435.718 46.408 436.294 46.264 436.942 45.976C437.59 45.664 438.154 45.292 438.634 44.86V38.956C436.474 38.956 434.854 39.328 433.774 40.072C432.718 40.792 432.19 41.728 432.19 42.88C432.19 44.032 432.454 44.908 432.982 45.508C433.534 46.108 434.278 46.408 435.214 46.408ZM463.679 49.396C462.191 49.396 460.859 49.048 459.683 48.352C458.507 47.632 457.571 46.528 456.875 45.04C456.179 43.552 455.831 41.692 455.831 39.46C455.831 37.444 456.239 35.608 457.055 33.952C457.895 32.272 459.119 30.94 460.727 29.956C462.335 28.972 464.267 28.48 466.523 28.48C467.435 28.48 468.299 28.576 469.115 28.768V22.684L465.587 22.18V20.2L473.003 19.48H473.111L474.119 20.236V46.804H476.063V48.856C474.335 49.216 472.907 49.396 471.779 49.396C471.011 49.396 470.459 49.264 470.123 49C469.811 48.76 469.655 48.268 469.655 47.524V46.516C469.031 47.356 468.179 48.052 467.099 48.604C466.019 49.132 464.879 49.396 463.679 49.396ZM465.551 46.408C466.343 46.408 467.039 46.252 467.639 45.94C468.263 45.604 468.755 45.208 469.115 44.752V31.648C468.947 31.408 468.587 31.204 468.035 31.036C467.507 30.868 466.931 30.784 466.307 30.784C464.771 30.784 463.535 31.456 462.599 32.8C461.687 34.12 461.231 36.244 461.231 39.172C461.231 41.62 461.627 43.444 462.419 44.644C463.211 45.82 464.255 46.408 465.551 46.408ZM478.69 39.028C478.69 36.772 479.134 34.852 480.022 33.268C480.934 31.684 482.146 30.496 483.658 29.704C485.17 28.888 486.814 28.48 488.59 28.48C491.614 28.48 493.942 29.416 495.574 31.288C497.23 33.136 498.058 35.656 498.058 38.848C498.058 41.128 497.602 43.072 496.69 44.68C495.802 46.264 494.602 47.452 493.09 48.244C491.602 49.012 489.958 49.396 488.158 49.396C485.158 49.396 482.83 48.472 481.174 46.624C479.518 44.752 478.69 42.22 478.69 39.028ZM488.446 47.056C491.158 47.056 492.514 44.44 492.514 39.208C492.514 36.472 492.19 34.396 491.542 32.98C490.894 31.54 489.838 30.82 488.374 30.82C485.59 30.82 484.198 33.436 484.198 38.668C484.198 41.404 484.534 43.492 485.206 44.932C485.902 46.348 486.982 47.056 488.446 47.056ZM503.347 32.404L501.043 31.756V29.272L507.019 28.516H507.127L508.027 29.236V30.64L507.991 31.504C508.831 30.712 509.923 30.028 511.267 29.452C512.611 28.876 513.967 28.588 515.335 28.588C516.799 28.588 517.939 28.864 518.755 29.416C519.595 29.944 520.195 30.784 520.555 31.936C520.915 33.088 521.095 34.648 521.095 36.616V46.552L523.291 46.84V49H514.003V46.84L515.947 46.552V36.616C515.947 35.368 515.863 34.396 515.695 33.7C515.527 32.98 515.215 32.464 514.759 32.152C514.327 31.816 513.703 31.648 512.887 31.648C511.519 31.648 510.055 32.236 508.495 33.412V46.516L510.655 46.84V49H501.259V46.84L503.347 46.516V32.404ZM525.439 43.384C525.439 41.2 526.531 39.556 528.715 38.452C530.923 37.348 533.767 36.784 537.247 36.76V35.932C537.247 34.948 537.139 34.18 536.923 33.628C536.731 33.076 536.359 32.668 535.807 32.404C535.279 32.116 534.499 31.972 533.467 31.972C532.291 31.972 531.235 32.128 530.299 32.44C529.363 32.728 528.391 33.112 527.383 33.592L526.267 31.288C526.627 30.976 527.227 30.604 528.067 30.172C528.931 29.74 529.951 29.368 531.127 29.056C532.303 28.72 533.515 28.552 534.763 28.552C536.611 28.552 538.051 28.792 539.083 29.272C540.139 29.752 540.895 30.52 541.351 31.576C541.807 32.632 542.035 34.048 542.035 35.824V46.84H543.979V48.856C543.499 48.976 542.815 49.096 541.927 49.216C541.039 49.336 540.259 49.396 539.587 49.396C538.771 49.396 538.219 49.276 537.931 49.036C537.667 48.796 537.535 48.304 537.535 47.56V46.588C536.887 47.308 536.047 47.956 535.015 48.532C533.983 49.108 532.819 49.396 531.523 49.396C530.419 49.396 529.399 49.168 528.463 48.712C527.551 48.232 526.819 47.548 526.267 46.66C525.715 45.748 525.439 44.656 525.439 43.384ZM533.827 46.408C534.331 46.408 534.907 46.264 535.555 45.976C536.203 45.664 536.767 45.292 537.247 44.86V38.956C535.087 38.956 533.467 39.328 532.387 40.072C531.331 40.792 530.803 41.728 530.803 42.88C530.803 44.032 531.067 44.908 531.595 45.508C532.147 46.108 532.891 46.408 533.827 46.408ZM550.185 31.576L549.357 35.104H546.765V28.984H562.641L563.469 30.856L553.893 44.14L551.373 46.732L559.437 46.336L561.165 42.196L563.613 42.484L563.037 49H546.333L545.433 47.02L555.261 34.024L557.853 31.324L550.185 31.576ZM570.584 25.708C569.72 25.708 569.036 25.456 568.532 24.952C568.028 24.448 567.776 23.8 567.776 23.008C567.776 22.096 568.064 21.34 568.64 20.74C569.216 20.14 569.984 19.84 570.944 19.84C571.904 19.84 572.636 20.104 573.14 20.632C573.644 21.136 573.896 21.772 573.896 22.54C573.896 23.5 573.608 24.268 573.032 24.844C572.456 25.42 571.652 25.708 570.62 25.708H570.584ZM568.676 32.404L566.12 31.72V29.308L572.708 28.516H572.78L573.788 29.236V46.552L576.2 46.84V49H566.156V46.84L568.676 46.516V32.404ZM578.78 39.028C578.78 36.772 579.224 34.852 580.112 33.268C581.024 31.684 582.236 30.496 583.748 29.704C585.26 28.888 586.904 28.48 588.68 28.48C591.704 28.48 594.032 29.416 595.664 31.288C597.32 33.136 598.148 35.656 598.148 38.848C598.148 41.128 597.692 43.072 596.78 44.68C595.892 46.264 594.692 47.452 593.18 48.244C591.692 49.012 590.048 49.396 588.248 49.396C585.248 49.396 582.92 48.472 581.264 46.624C579.608 44.752 578.78 42.22 578.78 39.028ZM588.536 47.056C591.248 47.056 592.604 44.44 592.604 39.208C592.604 36.472 592.28 34.396 591.632 32.98C590.984 31.54 589.928 30.82 588.464 30.82C585.68 30.82 584.288 33.436 584.288 38.668C584.288 41.404 584.624 43.492 585.296 44.932C585.992 46.348 587.072 47.056 588.536 47.056ZM603.437 32.404L601.133 31.756V29.272L607.109 28.516H607.217L608.117 29.236V30.64L608.081 31.504C608.921 30.712 610.013 30.028 611.357 29.452C612.701 28.876 614.057 28.588 615.425 28.588C616.889 28.588 618.029 28.864 618.845 29.416C619.685 29.944 620.285 30.784 620.645 31.936C621.005 33.088 621.185 34.648 621.185 36.616V46.552L623.381 46.84V49H614.093V46.84L616.037 46.552V36.616C616.037 35.368 615.953 34.396 615.785 33.7C615.617 32.98 615.305 32.464 614.849 32.152C614.417 31.816 613.793 31.648 612.977 31.648C611.609 31.648 610.145 32.236 608.585 33.412V46.516L610.745 46.84V49H601.349V46.84L603.437 46.516V32.404ZM634.997 49.396C631.829 49.396 629.465 48.472 627.905 46.624C626.369 44.752 625.601 42.208 625.601 38.992C625.601 36.832 625.997 34.96 626.789 33.376C627.605 31.792 628.745 30.58 630.209 29.74C631.673 28.9 633.365 28.48 635.285 28.48C637.685 28.48 639.533 29.116 640.829 30.388C642.125 31.636 642.797 33.424 642.845 35.752C642.845 37.336 642.749 38.512 642.557 39.28H630.857C630.953 41.464 631.469 43.168 632.405 44.392C633.341 45.592 634.673 46.192 636.401 46.192C637.337 46.192 638.297 46.036 639.281 45.724C640.289 45.412 641.081 45.04 641.657 44.608L642.557 46.588C641.909 47.284 640.853 47.932 639.389 48.532C637.949 49.108 636.485 49.396 634.997 49.396ZM637.805 37.12C637.853 36.448 637.877 35.932 637.877 35.572C637.877 32.38 636.809 30.784 634.673 30.784C633.497 30.784 632.585 31.252 631.937 32.188C631.289 33.124 630.929 34.768 630.857 37.12H637.805Z" fill="black"/>
<path d="M105.408 68.626L105.318 69.418L103.914 69.616L103.266 74.656H109.08L109.71 69.616L108.324 69.418L108.414 68.626H113.058L112.95 69.418L111.672 69.616L110.232 81.046L111.6 81.262L111.528 82H106.686L106.758 81.262L108.27 81.046L108.954 75.7H103.122L102.438 81.046L103.86 81.262L103.806 82H99.126L99.198 81.262L100.476 81.046L101.934 69.616L100.728 69.418L100.818 68.626H105.408ZM120.9 80.272C120.588 80.74 120.084 81.178 119.388 81.586C118.704 81.994 117.936 82.198 117.084 82.198C116.268 82.198 115.59 82.018 115.05 81.658C114.51 81.286 114.114 80.806 113.862 80.218C113.61 79.618 113.484 78.976 113.484 78.292C113.484 77.128 113.718 76.048 114.186 75.052C114.654 74.044 115.296 73.246 116.112 72.658C116.928 72.07 117.828 71.776 118.812 71.776C119.676 71.776 120.324 71.98 120.756 72.388C121.2 72.796 121.422 73.336 121.422 74.008C121.422 74.872 121.086 75.598 120.414 76.186C119.742 76.762 118.944 77.194 118.02 77.482C117.096 77.77 116.262 77.92 115.518 77.932C115.47 78.784 115.608 79.51 115.932 80.11C116.268 80.71 116.796 81.01 117.516 81.01C118.056 81.01 118.578 80.884 119.082 80.632C119.598 80.368 120.066 80.014 120.486 79.57L120.9 80.272ZM118.38 72.748C117.84 72.748 117.36 72.97 116.94 73.414C116.532 73.858 116.208 74.416 115.968 75.088C115.728 75.748 115.584 76.402 115.536 77.05C116.112 77.026 116.712 76.9 117.336 76.672C117.972 76.432 118.5 76.096 118.92 75.664C119.34 75.22 119.55 74.716 119.55 74.152C119.55 73.696 119.448 73.348 119.244 73.108C119.04 72.868 118.752 72.748 118.38 72.748ZM125.122 80.398C125.11 80.446 125.104 80.512 125.104 80.596C125.104 80.884 125.2 81.028 125.392 81.028C125.62 81.028 125.926 80.854 126.31 80.506L126.544 80.974C126.376 81.238 126.118 81.508 125.77 81.784C125.422 82.048 124.984 82.18 124.456 82.18C124.072 82.18 123.766 82.09 123.538 81.91C123.31 81.73 123.196 81.448 123.196 81.064C123.196 80.992 123.202 80.884 123.214 80.74C123.238 80.596 123.256 80.494 123.268 80.434L124.888 68.788L123.772 68.464L123.934 67.816L126.49 67.492L126.868 67.726L125.122 80.398ZM131.418 73.18C131.73 72.784 132.12 72.454 132.588 72.19C133.068 71.914 133.59 71.776 134.154 71.776C135.15 71.776 135.9 72.118 136.404 72.802C136.92 73.486 137.178 74.416 137.178 75.592C137.178 76.648 136.944 77.686 136.476 78.706C136.008 79.726 135.336 80.56 134.46 81.208C133.596 81.856 132.6 82.18 131.472 82.18C131.256 82.18 130.836 82.126 130.212 82.018L129.582 86.572H127.764L129.582 73.234L128.628 72.82L128.754 72.19L131.184 71.776L131.562 71.974L131.418 73.18ZM130.374 80.866C130.71 81.082 131.148 81.19 131.688 81.19C132.432 81.19 133.068 80.914 133.596 80.362C134.124 79.798 134.52 79.09 134.784 78.238C135.048 77.386 135.18 76.522 135.18 75.646C135.18 74.818 135.036 74.17 134.748 73.702C134.472 73.222 134.082 72.982 133.578 72.982C133.11 72.982 132.672 73.126 132.264 73.414C131.856 73.702 131.526 74.038 131.274 74.422L130.374 80.866ZM145.521 77.554C145.401 78.538 145.341 79.198 145.341 79.534C145.341 80.098 145.437 80.488 145.629 80.704C145.821 80.92 146.115 81.028 146.511 81.028C146.943 81.028 147.387 80.878 147.843 80.578C148.299 80.266 148.689 79.894 149.013 79.462L150.021 71.866H151.893L150.741 80.38L150.723 80.578C150.723 80.722 150.747 80.836 150.795 80.92C150.855 80.992 150.927 81.028 151.011 81.028C151.251 81.028 151.557 80.848 151.929 80.488L152.163 80.974C152.019 81.202 151.749 81.46 151.353 81.748C150.957 82.024 150.519 82.162 150.039 82.162C149.667 82.162 149.385 82.066 149.193 81.874C149.001 81.682 148.917 81.412 148.941 81.064C148.941 81.088 148.959 80.884 148.995 80.452L148.977 80.434C148.017 81.598 146.937 82.18 145.737 82.18C145.053 82.18 144.501 82 144.081 81.64C143.661 81.268 143.445 80.662 143.433 79.822C143.433 79.258 143.547 78.214 143.775 76.69L144.243 73.342L143.289 72.82L143.415 72.136L145.863 71.794L146.241 71.992L145.629 76.762L145.521 77.554ZM159.769 73.54C159.661 73.396 159.421 73.24 159.049 73.072C158.689 72.904 158.275 72.82 157.807 72.82C157.267 72.82 156.835 72.94 156.511 73.18C156.187 73.408 156.025 73.744 156.025 74.188C156.025 74.572 156.157 74.926 156.421 75.25C156.685 75.562 157.075 75.904 157.591 76.276C158.011 76.588 158.353 76.87 158.617 77.122C158.881 77.362 159.109 77.668 159.301 78.04C159.493 78.4 159.589 78.808 159.589 79.264C159.589 79.888 159.421 80.422 159.085 80.866C158.749 81.298 158.293 81.628 157.717 81.856C157.153 82.072 156.535 82.18 155.863 82.18C155.323 82.18 154.783 82.12 154.243 82C153.703 81.88 153.349 81.748 153.181 81.604L153.487 80.29C153.727 80.482 154.069 80.662 154.513 80.83C154.957 80.998 155.419 81.082 155.899 81.082C156.403 81.082 156.835 80.974 157.195 80.758C157.555 80.542 157.735 80.188 157.735 79.696C157.735 79.276 157.591 78.916 157.303 78.616C157.015 78.316 156.589 77.968 156.025 77.572C154.801 76.72 154.189 75.736 154.189 74.62C154.189 74.056 154.345 73.558 154.657 73.126C154.981 72.694 155.419 72.364 155.971 72.136C156.523 71.896 157.135 71.776 157.807 71.776C158.239 71.776 158.677 71.818 159.121 71.902C159.577 71.974 159.895 72.046 160.075 72.118L159.769 73.54ZM166.305 73.576C166.257 73.372 166.203 73.228 166.143 73.144C166.083 73.048 165.999 73 165.891 73C165.783 73 165.687 73.024 165.603 73.072C165.531 73.12 165.429 73.192 165.297 73.288L165.063 72.748C165.171 72.58 165.405 72.382 165.765 72.154C166.125 71.914 166.509 71.794 166.917 71.794C167.349 71.794 167.655 71.896 167.835 72.1C168.027 72.292 168.153 72.592 168.213 73L168.915 78.868L169.095 80.596L169.797 78.742L172.497 71.866H174.207L174.945 78.976L175.089 80.578L176.007 79.228C176.463 78.544 176.883 77.746 177.267 76.834C177.651 75.922 177.855 75.064 177.879 74.26C177.879 74.056 177.825 73.768 177.717 73.396C177.633 73.12 177.591 72.898 177.591 72.73C177.591 72.454 177.675 72.232 177.843 72.064C178.023 71.884 178.251 71.794 178.527 71.794C179.271 71.794 179.655 72.388 179.679 73.576C179.679 74.332 179.367 75.304 178.743 76.492C178.131 77.668 177.447 78.772 176.691 79.804L175.161 82.072L173.649 82.162L173.253 79.066L172.875 75.502L172.785 74.278L172.407 75.52L170.787 79.066L169.455 82.054L167.871 82.18L167.295 79.066L166.305 73.576ZM183.258 80.578C183.258 80.722 183.282 80.836 183.33 80.92C183.39 80.992 183.462 81.028 183.546 81.028C183.678 81.028 183.81 80.992 183.942 80.92C184.086 80.836 184.26 80.698 184.464 80.506L184.698 80.974C184.518 81.226 184.242 81.49 183.87 81.766C183.498 82.042 183.06 82.18 182.556 82.18C182.136 82.18 181.812 82.084 181.584 81.892C181.368 81.7 181.278 81.418 181.314 81.046C181.374 80.518 181.53 79.384 181.782 77.644C182.118 75.316 182.322 73.858 182.394 73.27L181.278 72.838L181.404 72.208L184.068 71.794L184.482 71.992L183.276 80.398L183.258 80.578ZM183.762 69.886C183.486 69.886 183.246 69.784 183.042 69.58C182.85 69.376 182.754 69.13 182.754 68.842C182.754 68.47 182.88 68.152 183.132 67.888C183.396 67.624 183.702 67.492 184.05 67.492C184.374 67.492 184.626 67.594 184.806 67.798C184.986 67.99 185.076 68.23 185.076 68.518C185.064 68.902 184.938 69.226 184.698 69.49C184.458 69.754 184.146 69.886 183.762 69.886ZM188.989 78.832C188.905 79.384 188.863 79.822 188.863 80.146C188.863 80.434 188.917 80.638 189.025 80.758C189.145 80.878 189.349 80.938 189.637 80.938C189.889 80.938 190.183 80.866 190.519 80.722C190.867 80.578 191.137 80.428 191.329 80.272L191.509 80.884C191.245 81.184 190.831 81.478 190.267 81.766C189.703 82.042 189.121 82.18 188.521 82.18C188.029 82.18 187.639 82.06 187.351 81.82C187.075 81.568 186.937 81.184 186.937 80.668C186.937 80.44 186.979 79.96 187.063 79.228L187.873 73.144H186.793L186.955 72.406L188.071 72.028C188.335 71.74 188.713 70.918 189.205 69.562H190.213L189.907 72.01H192.211L192.067 73.144H189.763L188.989 78.832ZM195.909 74.206C196.389 73.498 196.959 72.916 197.619 72.46C198.291 72.004 198.975 71.776 199.671 71.776C200.355 71.776 200.877 71.98 201.237 72.388C201.609 72.796 201.795 73.468 201.795 74.404C201.795 74.836 201.723 75.442 201.579 76.222C201.435 76.99 201.351 77.434 201.327 77.554C201.303 77.746 201.273 77.92 201.237 78.076C201.213 78.22 201.189 78.346 201.165 78.454C201.105 78.826 201.045 79.204 200.985 79.588C200.925 79.972 200.895 80.284 200.895 80.524C200.895 80.872 200.985 81.046 201.165 81.046C201.297 81.046 201.423 81.01 201.543 80.938C201.675 80.866 201.849 80.734 202.065 80.542L202.299 81.028C202.131 81.268 201.855 81.52 201.471 81.784C201.099 82.048 200.661 82.18 200.157 82.18C199.701 82.18 199.377 82.084 199.185 81.892C198.993 81.7 198.897 81.418 198.897 81.046C198.897 80.698 198.993 80.02 199.185 79.012L199.365 78.04L199.437 77.608C199.701 76.204 199.833 75.19 199.833 74.566C199.821 74.014 199.737 73.636 199.581 73.432C199.425 73.228 199.167 73.126 198.807 73.126C198.327 73.126 197.793 73.366 197.205 73.846C196.629 74.326 196.137 74.908 195.729 75.592L194.901 82H193.029L194.721 68.788L193.677 68.464L193.803 67.816L196.359 67.492L196.755 67.726L195.909 74.206ZM215.737 80.308C215.725 80.356 215.719 80.422 215.719 80.506C215.719 80.686 215.749 80.818 215.809 80.902C215.881 80.986 215.971 81.028 216.079 81.028C216.271 81.028 216.535 80.878 216.871 80.578L217.123 81.046C216.991 81.262 216.739 81.508 216.367 81.784C216.007 82.048 215.599 82.18 215.143 82.18C214.771 82.18 214.477 82.09 214.261 81.91C214.045 81.718 213.943 81.424 213.955 81.028L214.027 80.506C213.643 80.974 213.193 81.37 212.677 81.694C212.173 82.018 211.627 82.18 211.039 82.18C210.067 82.18 209.341 81.838 208.861 81.154C208.381 80.458 208.141 79.546 208.141 78.418C208.141 77.386 208.369 76.36 208.825 75.34C209.281 74.308 209.947 73.456 210.823 72.784C211.699 72.112 212.725 71.776 213.901 71.776C214.177 71.776 214.489 71.812 214.837 71.884C215.185 71.944 215.503 72.016 215.791 72.1L216.889 71.794L215.737 80.308ZM214.855 73.054C214.543 72.862 214.159 72.766 213.703 72.766C212.935 72.766 212.281 73.048 211.741 73.612C211.201 74.176 210.793 74.884 210.517 75.736C210.253 76.576 210.121 77.422 210.121 78.274C210.121 79.138 210.247 79.81 210.499 80.29C210.763 80.758 211.147 80.992 211.651 80.992C212.071 80.992 212.491 80.836 212.911 80.524C213.343 80.2 213.709 79.834 214.009 79.426L214.855 73.054ZM230.54 80.38C230.528 80.44 230.522 80.512 230.522 80.596C230.522 80.884 230.612 81.028 230.792 81.028C230.984 81.028 231.26 80.884 231.62 80.596L231.872 81.064C231.68 81.304 231.41 81.55 231.062 81.802C230.714 82.054 230.306 82.18 229.838 82.18C229.106 82.18 228.734 81.79 228.722 81.01V80.632C228.398 81.064 227.984 81.43 227.48 81.73C226.976 82.03 226.412 82.18 225.788 82.18C224.804 82.18 224.066 81.838 223.574 81.154C223.082 80.458 222.836 79.546 222.836 78.418C222.836 77.374 223.058 76.342 223.502 75.322C223.958 74.29 224.618 73.444 225.482 72.784C226.358 72.112 227.39 71.776 228.578 71.776C228.95 71.776 229.388 71.842 229.892 71.974L230.36 68.788L229.154 68.464L229.298 67.816L231.98 67.492L232.394 67.726L230.54 80.38ZM229.712 73.126C229.364 72.886 228.914 72.766 228.362 72.766C227.57 72.766 226.904 73.054 226.364 73.63C225.836 74.206 225.44 74.92 225.176 75.772C224.924 76.624 224.798 77.47 224.798 78.31C224.798 79.15 224.93 79.81 225.194 80.29C225.47 80.758 225.86 80.992 226.364 80.992C226.844 80.992 227.3 80.842 227.732 80.542C228.164 80.242 228.5 79.9 228.74 79.516L229.712 73.126ZM238.692 71.776C239.88 71.776 240.792 72.136 241.428 72.856C242.064 73.576 242.382 74.602 242.382 75.934C242.382 77.026 242.16 78.052 241.716 79.012C241.284 79.972 240.666 80.746 239.862 81.334C239.07 81.91 238.17 82.198 237.162 82.198C235.974 82.198 235.062 81.838 234.426 81.118C233.79 80.398 233.472 79.372 233.472 78.04C233.472 76.936 233.688 75.904 234.12 74.944C234.564 73.984 235.182 73.216 235.974 72.64C236.778 72.064 237.684 71.776 238.692 71.776ZM238.44 72.766C237.816 72.766 237.282 73.03 236.838 73.558C236.394 74.074 236.058 74.734 235.83 75.538C235.614 76.33 235.506 77.14 235.506 77.968C235.506 80.152 236.16 81.244 237.468 81.244C238.08 81.244 238.602 80.98 239.034 80.452C239.466 79.924 239.79 79.258 240.006 78.454C240.222 77.65 240.33 76.834 240.33 76.006C240.33 73.846 239.7 72.766 238.44 72.766ZM247.03 74.098C247.522 73.414 248.092 72.856 248.74 72.424C249.388 71.992 250.054 71.776 250.738 71.776C251.422 71.776 251.944 71.98 252.304 72.388C252.676 72.796 252.862 73.462 252.862 74.386C252.862 74.83 252.748 75.67 252.52 76.906L252.412 77.554L252.322 78.076C252.106 79.12 251.992 79.912 251.98 80.452V80.56C251.98 80.872 252.058 81.028 252.214 81.028C252.454 81.028 252.736 80.884 253.06 80.596L253.294 81.082C253.15 81.286 252.886 81.52 252.502 81.784C252.118 82.048 251.68 82.18 251.188 82.18C250.384 82.18 249.982 81.802 249.982 81.046C249.982 80.674 250.096 79.894 250.324 78.706L250.45 78.04L250.522 77.608C250.786 76.204 250.918 75.19 250.918 74.566C250.906 74.014 250.822 73.636 250.666 73.432C250.51 73.228 250.24 73.126 249.856 73.126C249.4 73.126 248.884 73.36 248.308 73.828C247.744 74.284 247.258 74.848 246.85 75.52L245.986 82H244.132L245.284 73.324L244.384 72.874L244.528 72.19L246.868 71.776L247.246 71.974L247.03 74.098ZM262.565 80.308C262.553 80.356 262.547 80.422 262.547 80.506C262.547 80.686 262.577 80.818 262.637 80.902C262.709 80.986 262.799 81.028 262.907 81.028C263.099 81.028 263.363 80.878 263.699 80.578L263.951 81.046C263.819 81.262 263.567 81.508 263.195 81.784C262.835 82.048 262.427 82.18 261.971 82.18C261.599 82.18 261.305 82.09 261.089 81.91C260.873 81.718 260.771 81.424 260.783 81.028L260.855 80.506C260.471 80.974 260.021 81.37 259.505 81.694C259.001 82.018 258.455 82.18 257.867 82.18C256.895 82.18 256.169 81.838 255.689 81.154C255.209 80.458 254.969 79.546 254.969 78.418C254.969 77.386 255.197 76.36 255.653 75.34C256.109 74.308 256.775 73.456 257.651 72.784C258.527 72.112 259.553 71.776 260.729 71.776C261.005 71.776 261.317 71.812 261.665 71.884C262.013 71.944 262.331 72.016 262.619 72.1L263.717 71.794L262.565 80.308ZM261.683 73.054C261.371 72.862 260.987 72.766 260.531 72.766C259.763 72.766 259.109 73.048 258.569 73.612C258.029 74.176 257.621 74.884 257.345 75.736C257.081 76.576 256.949 77.422 256.949 78.274C256.949 79.138 257.075 79.81 257.327 80.29C257.591 80.758 257.975 80.992 258.479 80.992C258.899 80.992 259.319 80.836 259.739 80.524C260.171 80.2 260.537 79.834 260.837 79.426L261.683 73.054ZM268.021 78.832C267.937 79.384 267.895 79.822 267.895 80.146C267.895 80.434 267.949 80.638 268.057 80.758C268.177 80.878 268.381 80.938 268.669 80.938C268.921 80.938 269.215 80.866 269.551 80.722C269.899 80.578 270.169 80.428 270.361 80.272L270.541 80.884C270.277 81.184 269.863 81.478 269.299 81.766C268.735 82.042 268.153 82.18 267.553 82.18C267.061 82.18 266.671 82.06 266.383 81.82C266.107 81.568 265.969 81.184 265.969 80.668C265.969 80.44 266.011 79.96 266.095 79.228L266.905 73.144H265.825L265.987 72.406L267.103 72.028C267.367 71.74 267.745 70.918 268.237 69.562H269.245L268.939 72.01H271.243L271.099 73.144H268.795L268.021 78.832ZM274.401 80.578C274.401 80.722 274.425 80.836 274.473 80.92C274.533 80.992 274.605 81.028 274.689 81.028C274.821 81.028 274.953 80.992 275.085 80.92C275.229 80.836 275.403 80.698 275.607 80.506L275.841 80.974C275.661 81.226 275.385 81.49 275.013 81.766C274.641 82.042 274.203 82.18 273.699 82.18C273.279 82.18 272.955 82.084 272.727 81.892C272.511 81.7 272.421 81.418 272.457 81.046C272.517 80.518 272.673 79.384 272.925 77.644C273.261 75.316 273.465 73.858 273.537 73.27L272.421 72.838L272.547 72.208L275.211 71.794L275.625 71.992L274.419 80.398L274.401 80.578ZM274.905 69.886C274.629 69.886 274.389 69.784 274.185 69.58C273.993 69.376 273.897 69.13 273.897 68.842C273.897 68.47 274.023 68.152 274.275 67.888C274.539 67.624 274.845 67.492 275.193 67.492C275.517 67.492 275.769 67.594 275.949 67.798C276.129 67.99 276.219 68.23 276.219 68.518C276.207 68.902 276.081 69.226 275.841 69.49C275.601 69.754 275.289 69.886 274.905 69.886ZM282.778 71.776C283.966 71.776 284.878 72.136 285.514 72.856C286.15 73.576 286.468 74.602 286.468 75.934C286.468 77.026 286.246 78.052 285.802 79.012C285.37 79.972 284.752 80.746 283.948 81.334C283.156 81.91 282.256 82.198 281.248 82.198C280.06 82.198 279.148 81.838 278.512 81.118C277.876 80.398 277.558 79.372 277.558 78.04C277.558 76.936 277.774 75.904 278.206 74.944C278.65 73.984 279.268 73.216 280.06 72.64C280.864 72.064 281.77 71.776 282.778 71.776ZM282.526 72.766C281.902 72.766 281.368 73.03 280.924 73.558C280.48 74.074 280.144 74.734 279.916 75.538C279.7 76.33 279.592 77.14 279.592 77.968C279.592 80.152 280.246 81.244 281.554 81.244C282.166 81.244 282.688 80.98 283.12 80.452C283.552 79.924 283.876 79.258 284.092 78.454C284.308 77.65 284.416 76.834 284.416 76.006C284.416 73.846 283.786 72.766 282.526 72.766ZM291.116 74.098C291.608 73.414 292.178 72.856 292.826 72.424C293.474 71.992 294.14 71.776 294.824 71.776C295.508 71.776 296.03 71.98 296.39 72.388C296.762 72.796 296.948 73.462 296.948 74.386C296.948 74.83 296.834 75.67 296.606 76.906L296.498 77.554L296.408 78.076C296.192 79.12 296.078 79.912 296.066 80.452V80.56C296.066 80.872 296.144 81.028 296.3 81.028C296.54 81.028 296.822 80.884 297.146 80.596L297.38 81.082C297.236 81.286 296.972 81.52 296.588 81.784C296.204 82.048 295.766 82.18 295.274 82.18C294.47 82.18 294.068 81.802 294.068 81.046C294.068 80.674 294.182 79.894 294.41 78.706L294.536 78.04L294.608 77.608C294.872 76.204 295.004 75.19 295.004 74.566C294.992 74.014 294.908 73.636 294.752 73.432C294.596 73.228 294.326 73.126 293.942 73.126C293.486 73.126 292.97 73.36 292.394 73.828C291.83 74.284 291.344 74.848 290.936 75.52L290.072 82H288.218L289.37 73.324L288.47 72.874L288.614 72.19L290.954 71.776L291.332 71.974L291.116 74.098Z" fill="black"/>
<defs>
<clipPath id="clip0_1_10">
<rect width="54" height="54" fill="white" transform="translate(21 22)"/>
</clipPath>
</defs>
</svg>
